<?xml version="1.0" encoding="utf-8"?>
<!-- Generator: Adobe Illustrator 21.1.0, SVG Export Plug-In . SVG Version: 6.00 Build 0)  -->
<svg version="1.1" xmlns="http://www.w3.org/2000/svg" xmlns:xlink="http://www.w3.org/1999/xlink" x="0px" y="0px"
	 viewBox="0 0 100 100" style="enable-background:new 0 0 100 100;" xml:space="preserve">
<style type="text/css">
	.st0{fill:#010101;}
</style>
<g id="Layer_1">
	<path class="st0" d="M8.7,12.5c10.5-12,28.4-11.6,39.1,0.1l2.2,2.5l2.2-2.5C62.9,0.9,80.8,0.5,91.3,12.5
		c10.2,11.7,10.1,30.2-0.4,41.6l-2.7,3L51.4,97.7c-0.8,0.8-2,0.8-2.7,0c0,0,0,0,0,0L9,54.2C-1.4,42.7-1.5,24.2,8.7,12.5z"/>
</g>
<g id="Layer_2">
	<g transform="translate(0,-952.36218)">
		<path class="st0" d="M27.7,953.6c-16.1,0-27,14.5-27,32.9c0,31.6,21.1,44.8,49.2,64.5c28.1-19.8,49.2-32.9,49.2-64.5
			c0-18.4-10.9-32.9-27-32.9c-10.3,0-18.8,6.6-22.3,10.5C46.6,960.2,38.1,953.6,27.7,953.6z"/>
	</g>
</g>
<g id="Layer_3">
	<path class="st0" d="M89.9,11.7C79.1-0.7,61.7-0.7,51,11.7l-1,1.1l-1-1.1c-10.7-12.4-28.2-12.4-38.9,0s-10.8,32.6,0,45l1,1.1
		l24.8,28.7l0,0l5.8,6.7l0.1,0.1l2.5,2.8c3.2,3.7,8.4,3.7,11.7,0l2.3-2.6l0,0l6-7l0,0l24.8-28.7l1-1.1c10.8-12.4,10.8-32.5,0.1-44.9
		C89.9,11.8,89.9,11.7,89.9,11.7z"/>
</g>
<g id="Layer_4">
	<path class="st0" d="M50.4,95.8L50,96l-0.2-0.2C-23.3,47.8,1.8,1.5,28.9,2c0.9,0,1.7,0.1,2.6,0.2C42.4,3.7,47.6,10.3,50,16
		c2.4-5.7,7.6-12.3,18.5-13.7C96.5-1.5,125.6,46.2,50.4,95.8z"/>
</g>
</svg>
