<?xml version="1.0" encoding="utf-8"?>
<!-- Generator: Adobe Illustrator 21.1.0, SVG Export Plug-In . SVG Version: 6.00 Build 0)  -->
<svg version="1.1" id="Layer_3" xmlns="http://www.w3.org/2000/svg" xmlns:xlink="http://www.w3.org/1999/xlink" x="0px" y="0px"
	 viewBox="0 0 100 100" style="enable-background:new 0 0 100 100;" xml:space="preserve">
<style type="text/css">
	.st0{fill:#010101;}
</style>
<path class="st0" d="M89.9,11.7C79.1-0.7,61.7-0.7,51,11.7l-1,1.1l-1-1.1c-10.7-12.4-28.2-12.4-38.9,0s-10.8,32.6,0,45l1,1.1
	l24.8,28.7l0,0l5.8,6.7l0.1,0.1l2.5,2.8c3.2,3.7,8.4,3.7,11.7,0l2.3-2.6l0,0l6-7l0,0l24.8-28.7l1-1.1c10.8-12.4,10.8-32.5,0.1-44.9
	C89.9,11.8,89.9,11.7,89.9,11.7z"/>
</svg>
