<svg version="1" xmlns="http://www.w3.org/2000/svg" width="682.667" height="682.667" viewBox="0 0 512.000000 512.000000"><path d="M125.6 1.6c-9.8 1.8-26.3 7.2-34.8 11.5C60.4 28.3 36.3 55.9 25.6 88c-5 14.9-6.6 25.6-6.6 43.4 0 13.3.4 17.2 3.5 32.3 7.6 37.6 20.5 67.6 44.7 103.8 22.4 33.5 46.7 60.8 83.1 93.2 4.7 4.2 5.2 5.5 4.1 11.1-.7 3.2-1.2 3.6-7.6 4.7-3 .5-3.9 1.1-4.5 3.3-.4 1.5-.6 3.4-.5 4.3.2 1-1.1 2.5-3.1 3.6-2.9 1.8-5 5.7-18.2 33.9-8.1 17.5-16.8 36.1-19.2 41.2-5.1 10.8-21.3 47.9-21.3 48.7 0 .3 23.5.5 52.3.5h52.3l20.9-14.8 21-14.8 12.1 3.6c11.8 3.6 12.3 3.9 25 13.5 7.1 5.4 13.4 10.4 14 11.2.9 1 9.7 1.3 45.8 1.3H368l.1-6.8c0-3.7.3-10.4.5-15 .4-6.7-.1-11-2.7-23-1.7-8.1-3.3-15.6-3.5-16.7-.2-1.1-1-5.2-1.8-9-.9-3.9-1.8-8.2-2-9.8-.3-1.5-.7-3.5-1-4.5-.3-.9-.7-2.8-1-4.2-2-11.8-9.2-44.6-9.8-44.8-.4-.2-.8-1.4-.8-2.6 0-1.5 2.8-4.5 9.8-10.3 55.8-46.4 100.6-105.1 121.8-159.9 12.8-33.3 18.2-70.7 13.9-96.6-3.1-18.9-9.5-35.1-19.9-50.8-18.4-27.6-44.6-46.1-77.5-54.7-13.3-3.5-40.3-4.4-54.8-1.8C308.8 7 280 23.4 261.5 46l-5.8 7-2.4-3.2c-1.3-1.8-5.8-6.9-10.1-11.2-18.6-19.1-41.8-31.5-68.4-36.7-12.1-2.3-37.1-2.5-49.2-.3zM162 11.9c0 1.3.2 1.3.9.2s2-1.2 7.7-.1c3.8.7 7.5 1.7 8.2 2.3.6.5 1.2.7 1.2.4 0-1.9 31 11.1 31.8 13.4.2.5 1 .9 1.8.9s1.4.5 1.4 1.1c0 .5.4.8.9.5.5-.3 2 .5 3.4 1.8 1.3 1.3 4.1 3.3 6.1 4.5 2 1.3 3.4 2.7 3 3.2-.3.5 0 .8.8.7.7-.2 1.2.3 1.1.9-.2.7.3 1.2 1 1 .6-.1 1.1.4 1 1-.2.7.3 1.2 1 1 .6-.1 1.1.4.9 1.1-.1.8.2 1.1.7.8 1.1-.7 10.1 9.3 10.1 11.2 0 .7-.4 1.1-.9.8-.5-.3-1.2.1-1.5 1-.4.9-.9 1.4-1.3 1-.3-.3-1.5.1-2.5 1.1-1 .9-1.8 1.2-1.8.8 0-.4-1 0-2.2 1.1-1.3 1.2-1.8 1.3-1.3.4.7-1.2.6-1.3-.6-.4-1.7 1.4-10.9 1.8-10.9.5 0-.5.4-2.1 1-3.6.7-1.8.7-2.4-.1-2-1.3.9-5-2.4-4.2-3.8.4-.6.1-.7-.6-.3-1.8 1.1-5.6-2.5-3.9-3.6.9-.6.6-.7-.8-.3-1.6.4-2.8-.2-4.4-2.2-1.2-1.5-1.8-2.1-1.5-1.3.4.8-1.2-.4-3.4-2.7-2.3-2.3-4.1-4-4.1-3.6 0 .3-.6.1-1.3-.5-1.2-1.1-4.7.6-4.7 2.3 0 .4-.8 1.4-1.7 2.2-1 .8-1.2 1.2-.5.8 1-.5 1-.1 0 2.2-1.6 3.8-3.4 5.7-4.7 4.8-.6-.3-.9-.9-.7-1.3.2-.4-1-.7-2.7-.8-1.8-.1-4.3-.4-5.7-.8-3.5-1-5.3-1.4-6.5-1.5-.5-.1-.4-.5.3-1 1.1-.7 1.1-.9-.2-1.4-.9-.4-1.5-.1-1.3.6.1.7-.5 1-1.3.8-7.6-1.9-9.7-2.7-10.8-4-.8-.9-1.1-1-.7-.4.4.8 0 1.3-1 1.3s-1.3-.5-.9-1.2c.4-.6.3-.8-.3-.5-.6.4-3.2.1-5.9-.6-2.8-.7-7.8-1-11.7-.7-3.9.3-6.7.1-6.7-.5 0-.5-.5-.4-1.2.3-.9.9-1.6.8-3.2-.6-1.7-1.4-1.8-1.4-.8-.1 1.2 1.5-.3 1.7-17.8 1.4-16.1-.2-19 0-19 1.3 0 .8-.6 1.2-1.4.9-.9-.4-1.3-.1-1 .7.6 1.6-1.8 6.2-4.2 8.2-1.1.9-1.3 1.2-.6.9 1.1-.6 1-.1-.1 2.1-1.4 2.6-1.3 3.4.4 7.8 1 2.7 1.6 5.3 1.4 5.7-.3.4-.1.9.3 1.1.5.1 1.9 2.9 3 6 1.6 4.2 1.8 5.8.9 6.2-.7.2-.4.5.7.5 1.2.1 1.6.6 1.2 1.6-.3.8-.1 1.5.4 1.5.4 0 1.2 1.5 1.6 3.2.6 3.1 2.5 8.1 4.5 12 .5 1 .9 2.3.9 3 0 .7 1.4 4 3 7.2 2.3 4.6 2.7 6.2 1.7 6.9-.8.6-.6.7.6.3 1.2-.4 2 .1 2.7 1.8.5 1.3 1.4 2.7 2 3.1.5.3.8 1 .5 1.5-.3.4.2 1.1 1.1 1.4.9.4 1.4 1.3 1 2.2-.3.8-.2 1.3.3 1 .4-.3 1.9 1.6 3.2 4.2 1.3 2.6 3.2 5.6 4.2 6.7 1 1.1 2 3 2.3 4.2.4 1.3 1 2.3 1.6 2.3.5 0 .7.4.4.9-.4.5-.3 1.1.2 1.3 1.3.5 6.8 10.1 7.5 13 .5 2 .3 3-1 3.8-1.6 1.1-1.6 1.1-.1.6 1.9-.6 3.4.9 1.8 1.9-.5.3-1 1.2-1 1.8 0 .7.4.6 1-.3 1-1.5 1.1-.7 1.4 8.7 0 1.7.4 2.9.8 2.7.4-.3.8.2.8 1 0 2.2-.4 3.1-1.2 2.9-.4-.2-.5.4-.1 1.3.5 1.3.8 1.3 1.5.2.7-.9.8-.7.5.9-.3 1.3 0 2.3.5 2.3.6 0 .4.8-.3 1.7-.8.9-.9 1.4-.3 1 1.2-.7 3.9 12.7 2.9 14.4-.4.5-.1.9.6.9.8 0 .7.5-.2 1.7-.8.9-.9 1.4-.3 1 1.3-.8 3 7.6 1.9 9.3-.3.5-.1 1 .4 1 .6 0 1.1.7 1.1 1.6 0 1.3-.3 1.4-1.3.5-1-.8-1.4-.7-1.4.4 0 .8.3 1.3.5 1 .7-.6 3.2 1.5 3.2 2.7 0 .5-.4.7-.8.4-.5-.3-.9.1-.9.9s.5 1.1 1 .8c.6-.4.8.3.5 1.5-.4 1.2-.2 2.2.4 2.2.6 0 .8 1.3.6 2.9-.2 1.7-.1 2.8.3 2.6.4-.3.9.6 1.1 2 .3 1.4.1 2.5-.5 2.5s-.6.4 0 1.2c.6.7.9 2.3.8 3.5-.1 1.3.1 2.1.3 1.8.5-.4 2.8 5 3.5 8 .1.5.5 1.2.9 1.5 1 .8 2.7 9 1.9 9-.4 0-1.3-.6-2.1-1.2-.9-.8-.8-.5.1.7 2 2.4 2.4 8.9.6 7.9-.9-.5-.9-.4 0 .6.6.7.9 1.8.7 2.4-.3.7.3 3 1.3 5.2.9 2.1 1.6 4.2 1.5 4.6-.1.5.3.8.8.8.6 0 .3 1.4-.6 3.1-1.1 2.2-1.8 2.8-2.4 2-.4-.7-.7.2-.6 2.1.1 4.8-1.4 14.8-2.3 14.8-.4 0-.7 1-.7 2.2.1 4.6-1.5 10.8-2.7 10.8-.8 0-.7.4.3 1 1.3.8 1.2 1.1-.5 2.5-1.1.9-1.4 1.3-.6.9 1-.5 1.3-.3.8.8-.3.9-.3 1.9.1 2.3.4.3.7 2.3.8 4.4 0 2.1.4 4.4.8 5.2.4.8-1.3-.7-3.8-3.3-2.5-2.6-4.6-4.4-4.6-4.1 0 .3-2.4-1.8-5.4-4.7-3-3-5.2-5.9-4.9-6.4.3-.6.3-.8-.2-.4-1.2 1.1-3.5-1.2-3.5-3.5 0-1.1-.3-1.7-.7-1.3-.9.8-10.4-8.5-9.7-9.6.3-.4.1-.8-.5-.8-1.6 0-16.2-18.1-15.5-19.2.4-.7.2-.8-.4-.4-1.1.6-3.8-3.1-3.4-4.7.1-.4-.1-.6-.5-.5-.5.2-.8 0-.8-.4s-1-1.5-2.3-2.4c-1.4-.9-2.1-2.2-1.8-3.1.3-.8.2-1.2-.3-.9-.4.3-2.3-1.5-4-3.9-1.8-2.5-3-4.5-2.7-4.5.3 0-.6-1.2-2-2.7-1.3-1.4-2.2-2.8-2-3 .2-.2-.7-1.6-2-3s-2.1-2.9-1.8-3.4c.3-.5.1-.9-.4-.9-1.4 0-5.5-7.1-5.4-9.3 0-.9-.3-1.5-.7-1.3-1.2.8-5.1-7.2-4.5-9.2.5-1.4.4-1.5-.5-.2-.8 1.2-2.3-1.2-7.1-11.3-3.4-7.1-5.8-13.3-5.4-14 .4-.6.3-.9-.1-.4-1 .9-3.7-5.1-2.9-6.4.3-.5.1-.9-.4-.9-.8 0-3.6-7-4.7-11.5-.1-.6-.7-2.2-1.3-3.8-2.1-5-5.3-19-4.9-20.9.3-1 .2-1.6-.3-1.3-.9.6-2.3-7.2-1.5-8.6.4-.5.2-.9-.3-.9-1.6 0-3.4-15.9-2.9-25.5.8-15.7 3.1-29.5 4.8-29.5.5 0 .5-.7.2-1.7-.4-1.1-.3-1.4.5-.9.7.4 1 .2.6-.7C34.8 94 38.8 83 40.1 83c.6 0 .8-.4.4-.9-.7-1.2 2.5-8.1 3.7-8.1.5 0 .7-.4.4-.9-.3-.5.2-1.9 1.2-3.2 1-1.3 2.2-3.2 2.5-4.2.4-1 1.1-1.5 1.7-1.2.5.3.7 0 .4-.8-.3-.8 0-1.8.7-2.3.8-.5 1-.3.4.6-.5.9-.4 1.1.4.6.6-.4.9-1.2.5-1.7-.3-.5.9-2.7 2.6-4.9 2.8-3.5 3.4-3.9 4.9-2.8 1.4 1.2 1.5 1.1.2-.5-1.2-1.5-1.1-2.1.9-4.2 1.3-1.3 2.7-2.2 3.3-1.8.6.3.7.2.4-.4-.7-1.1 4.6-6.7 5.5-5.8.3.3 1.3-.6 2.2-2 1.1-1.6 2.3-2.4 3.2-2.1.8.3 1.2.2.9-.3-.5-.9 2.3-3 10-7.8 4.2-2.7 15.5-8.3 15.5-7.8 0 .4 1-.1 2.2-.9 1.7-1.2 2.5-1.3 3.7-.3 1.2.9 1.3.9.7-.1-.7-1.2.6-2.1 3.6-2.6.7-.1 1.9-.5 2.6-1 .7-.4 1.9-.2 2.8.5 1.2 1 1.3.9.8-.5-.4-1.1-.1-1.6 1.2-1.7 1.1 0 2.8-.3 3.9-.6 1.1-.2 3.1-.6 4.5-.9 1.4-.2 4.3-.8 6.5-1.2 2.2-.5 9.3-.9 15.8-.9 10.1 0 11.7.2 11.7 1.6zm220.3-.3c2.4.4 3.7 1.2 3.7 2.3 0 1.3.2 1.3.9.3 1.2-1.9 16.8 2.8 16.3 4.9-.3 1.1-.1 1.1.9.2 1-1 1.6-1 2.7-.1.8.7 2.3 1.3 3.3 1.5 2.5.4 9.2 3.8 14.4 7.3 2.2 1.5 4.8 3 5.8 3.3 1.1.4 1.5 1.2 1.1 1.9-.4.7-.4 1 .1.6 1.1-1.1 4.7 1.1 3.9 2.4-.4.6-.3.8.4.4.6-.3 2.2.5 3.6 1.9s2.9 2.5 3.3 2.5c.4 0 2.6 1.9 4.9 4.3C453 51 459.4 59 458.5 59c-.4 0 .4 1.2 1.9 2.6 1.4 1.5 2.6 3.3 2.6 4 0 .8.3 1.4.8 1.4 1 0 6.9 10.9 7.4 13.5.1 1.1.7 2.3 1.1 2.6.5.3 1 1.2 1.1 2 .2.8.9 2.7 1.6 4.4 2 4.7 5 14.8 5 16.8 0 1.1-.4 1.5-1.2 1.1-.7-.4-.8-.3-.4.5.4.6 1.2.9 1.7.6.5-.4.9.4 1 1.7 0 1.3.3 3.2.5 4.3 1.2 4.7 1.6 26.5.6 26.5-.7 0-.9 1.4-.5 3.7.5 3.1.4 3.5-1 3-.9-.3-1.9-.1-2.3.5-.4.6-.3.8.4.4 1.6-1 2.4 1.1 1.7 4.4-.4 1.9-1.1 2.8-1.8 2.4-.9-.5-.9-.4-.1.5 1.1 1.2.7 7.1-.5 7.1-.4 0-.7 1-.7 2.2 0 4.2-1.6 10.8-2.5 10.3-.5-.4-.6.1-.3.9.3.9.3 2.4-.1 3.3-.5 1-1 2.9-1.2 4.2-.2 1.4-1.2 3.1-2.1 3.9-.9.7-1.1 1.1-.4.7 1.7-.8 1.7-.9-2.4 9.7-4.8 12.7-9.5 22.8-10.6 22.8-.5 0-.7.4-.3.9.3.5 0 1.5-.7 2.3-.7.7-1.4 2-1.6 2.8-.2.8-.8 1.8-1.4 2.1-.5.3-.9 1-.9 1.5.2 2.1-1.1 4.4-2.1 3.8-.7-.4-.8-.2-.4.5.7 1.1-2.8 7.9-4.8 9.3-.6.4-.8.8-.4.8s-.6 2.3-2.3 5c-1.7 2.8-3.5 4.7-4.1 4.3-.7-.3-.8-.1-.4.6.9 1.4-9.5 17.2-10.8 16.4-.5-.3-.6-.1-.2.5.4.7-.4 2.3-1.8 3.7-1.4 1.4-2.2 2.5-1.8 2.5.4 0 0 .6-.9 1.3-.8.7-1.8 2-2.2 3-.4 1.1-1.2 1.5-1.8 1.1-.7-.4-.9-.3-.6.3.4.6-.6 2.5-2.2 4.2-1.5 1.6-2.6 3.2-2.4 3.5.3.3-.4 1.1-1.6 1.8-1.2.7-2.1 1.7-2.1 2.2 0 .5-1.1 2.1-2.4 3.5-1.4 1.4-5.3 5.9-8.6 9.9-3.4 3.9-6.7 6.9-7.2 6.5-.6-.3-.8-.2-.5.4.7 1-4.3 5.9-5.5 5.5-.5-.1-.8.5-.8 1.5 0 2.2-7.8 9.5-9.3 8.7-.7-.4-.9-.3-.4.1.9 1-4.3 6.6-5.5 5.9-.4-.3-.8.2-.8 1s-2.1 3.2-4.7 5.3c-2.6 2.1-5.7 4.8-7 6.1-1.3 1.3-2.8 2-3.3 1.7-.6-.4-.9-.1-.8.7.2.7-.3 1.2-1 1-.8-.1-1.1.2-.7.7.6 1.1-2.9 3.4-3.8 2.4-.4-.3-.2-1.5.4-2.6.8-1.4.8-1.8 0-1.3-1.5 1-1.4-2.7.2-4.3.8-.9.8-1.2 0-.7-1.4.8-2.1-2.4-2.8-12.5-.3-4.2-.7-8.6-1-9.7-.2-1.3.1-2.2.8-2.2.8 0 .7-.3-.2-.9-.8-.5-1.1-1.6-.8-2.5.4-.9.1-1.6-.5-1.6-.7 0-.3-.7.8-1.5 1.3-1.1 1.4-1.4.4-1.3-1.1.2-1.5-.6-1.5-2.8 0-2.3-.4-3-1.4-2.6-1 .4-1.3-.1-.9-2s.1-2.5-.9-2.1c-.7.3-1.3-.1-1.3-1 0-.8-.5-1.7-1-1.9-1.2-.4-.2-6.8 1-6.8 1 0 .8 2-.5 4-.7 1.3-.6 1.3.7.2 1.6-1.3 1.8-2.8.5-4.8-.4-.7.4-4.6 1.7-8.7 1.3-4.2 2.7-9 3.1-10.7.4-1.6 1-3 1.3-3 .4 0 .8-1.7.9-3.7.1-2 .7-3.9 1.4-4.3.6-.4.8-1.3.5-1.9-.4-.6-.4-1.1.1-1.1.4 0 .9-1.2 1-2.8.5-5.9 1.6-10.2 2.4-9.6.5.3.6-.2.3-1-.5-1.2.6-8.1 2.3-14.6.3-.8.4-2.3.4-3.3 0-.9.4-1.5.8-1.3.4.3.7-.5.7-1.7 0-4.1 2.7-16.7 3.6-16.7.5 0 .7-.4.4-.9-.3-.5.1-1.4.9-2.1.8-.7 1.5-1.7 1.5-2.3 0-.6-.7-.2-1.5.9-1.9 2.5-1.9.7 0-2.9.9-1.9 1-2.5.2-2.1-.9.5-.9.4 0-.6.6-.7.9-1.9.6-2.6-.3-.8-.1-1.4.3-1.4.5 0 1-1 1-2.3.3-5.2 1.3-9 2.5-9.8.8-.5 1.1-.9.6-.9-.4 0 .9-2.5 3-5.5 2.6-4.1 3.9-5.2 4.5-4.3.6.9.7.5.3-1-.4-1.3-.2-2.2.4-2.2.6 0 1.1-.6 1.1-1.4 0-.8.5-1.8 1.2-2.2.7-.5.8-.3.3.6-.5.8-.4 1.1.3.6.6-.4.9-1.3.5-2.1-.3-.9.1-1.5 1.1-1.5s1.3-.5.9-1.7c-.4-1.1-.3-1.4.5-.9.7.4 1.2.2 1.2-.4 0-.6.5-.8 1.2-.4s.8.3.4-.5c-.8-1.3 4.1-7 5.8-6.7.6.2.7.1.3-.2-.4-.2-.3-1 .4-1.8.9-1.2 1.5-1.2 2.8-.2 1.4 1.1 1.4 1.1.4-.2-1.4-1.9-.1-4.6 1.7-3.5.8.5 1.1.4.6-.3-.8-1.4 3.4-6.3 4.7-5.5.6.3.7.1.3-.5-.8-1.3 3.3-5.4 4.7-4.5.6.3.7.1.3-.5-.4-.6 1.3-3.2 3.9-5.9 2.4-2.6 4.5-5.1 4.5-5.6 0-.4.7-.7 1.6-.7.8 0 1.2-.4.9-1-.3-.5.3-1.5 1.5-2.2 1.1-.7 2-1.8 2-2.5 0-2.3 2.3-6.2 3.3-5.6.6.3.7.1.3-.5-.4-.6.1-2.8 1-4.9 1-2.1 1.8-4.3 1.9-4.8 0-.6.7-.9 1.4-.7.7.1 1-.2.6-.7-.7-1.3 5.3-16.2 7.1-17.7.8-.6 1.2-1.3.9-1.6-.2-.2.8-3.8 2.4-8l2.8-7.7-3.8-3.2c-2.1-1.8-3.6-3.7-3.2-4.3.3-.6.2-.8-.2-.3-.5.4-1.7-.1-2.7-1-2.1-1.9-3.1-2.2-10.8-2.9-3-.3-5.7-.9-6-1.2-.9-1.3-28.9-.1-32.7 1.3-.7.2-1.3-.1-1.3-.7 0-.7-.4-.7-1.2 0-.7.6-3.9 1.2-7.1 1.5-4.6.4-5.5.2-4.7-.8.8-1 .8-1.5-.1-2.1-.7-.4-.9-.3-.6.3 1.1 1.7-1.4 3-7.3 3.7-3 .3-8.4 1.5-12 2.6-6.2 2-6.5 2-7.8.3-1.3-1.7-1.4-1.6-.7.4.7 2.4.5 2.5-6.2 2.6-1.2.1-2 .4-1.7.8.2.4-.4.9-1.4 1.1-1.7.5-1.7 0-.9-5.3.5-3.2 1.4-5.6 1.9-5.3.5.3.7 1.3.3 2.3-.4 1.1-.3 1.3.4.5 1.3-1.2-.7-6.4-2.5-6.4-.5 0-3 1-5.4 2.1-2.4 1.2-5.4 2.2-6.6 2.3-1.2 0-2 .4-1.8.8.8 1.3-1.7 1.9-3.2.7-1.2-1-1.3-.9-.9.3.4 1-.6 1.8-3.5 2.8-4.3 1.4-6.1 3.5-5.2 6 .4 1.2.1 1.2-1.9-.2-1.3-.9-2.3-2.2-2.1-2.8.1-.6-.2-.9-.8-.5-1 .6-5.3-1.8-4.5-2.6.2-.3-.4-.5-1.3-.6-4.5-.3-6.2-.8-6.2-1.7 0-.5-.3-.7-.6-.3-.3.3-1.7.2-3.1-.4-1.3-.5-3.8-1.1-5.6-1.5-1.8-.3-3.6-.9-4.1-1.4-.5-.5-1.6-.6-2.4-.2-.9.3.3-1.8 2.7-4.6 2.5-2.9 4.6-5 4.8-4.8.2.2 1.9-1.2 3.8-3.1 2-2 3.9-3.1 4.6-2.7.7.4.9.3.6-.3-.4-.6.9-2.3 2.8-3.7 1.9-1.5 3.5-2.3 3.5-1.9 0 .4.5 0 1.1-1 .7-1.2 1.7-1.6 3.2-1.2 1.7.5 1.9.4.7-.4-1.4-1-1.2-1.3.6-1 .4 0 1-.3 1.3-.8 1.2-1.7 6.2-4.4 7-3.8.5.3 1.1.1 1.3-.4.1-.4 2.1-1.7 4.4-2.8 3.7-1.8 4.2-1.8 5.2-.4s1.1 1.4.6-.2c-.6-1.7 1.7-3.1 8.5-5.2 1.8-.6 2.2-.4 1.6.6-.5.8.1.6 1.2-.4 1.2-1.1 2.7-1.5 3.8-1.1 1.3.5 1.6.4 1.1-.4-.7-1.2 1.2-1.6 7.2-1.5 1.2 0 2.2-.3 2.2-.8 0-.4 1.7-1 3.8-1.2 5.1-.6 29.8 0 34.5.9zM179.6 88.7c1.2 1.6 1.3 1.6.8.1-.5-1.4-.1-1.5 3.5-.6 2.3.6 4.1 1.4 4.1 1.9s.3.8.8.7c1.5-.4 9.1 2.5 8.6 3.3-.2.4.4.7 1.4.6 1 0 3.3.5 5 1.2l3.2 1.4-2 3.4c-1.1 1.9-2 5.2-2 7.3 0 5.4-.9 7.4-2.6 5.9-1.2-.9-1.3-.9-.9.3.4.9-.8 2.7-3.2 4.7-3.3 2.8-3.9 3-4.9 1.7-.6-.9-1.4-1.3-1.7-.9-.4.3-.7.2-.7-.4 0-.6-1-1.3-2.2-1.6-1.9-.5-2-.8-.7-2.4 1.3-1.6 1.2-1.7-.3-.4-1.5 1.1-2.1 1.1-3.3.1-1.3-1.1-1.3-1.5-.3-2.2.9-.6.5-.7-.9-.3-1.7.5-2.3.2-2.3-.9 0-.9-.4-2.4-.9-3.4-2.5-4.8-3.3-7.2-3.4-9.5-.1-1.4-.4-2.4-.7-2.2-1.2.7-4.2-2.4-3.4-3.6.4-.8.3-1-.4-.5-1.1.7-8.2-3.3-8.2-4.7 0-.4 3.7-.7 8.1-.7 6.6 0 8.4.3 9.5 1.7zm169.2 4.6c-7.3 2.8-23 17.3-23.3 21.5-.1 1.5-.3 3.7-.3 5-.1 1.6-.6 2.1-1.4 1.6-.9-.5-.8-.2.1 1 .8 1 1 2 .5 2.5-1.8 1.7-10.4 6-10.4 5.3 0-.4-.5.1-1.1 1-.5 1-1.5 1.8-2 1.8-.6 0-.8-.4-.5-.8.3-.5-.1-.9-.9-.9-1 0-1.2.4-.5 1.2 1.1 1.4-.4 4-1.9 3.1-.6-.4-.9-.2-.6.6.3.7-1.5 3.6-4 6.3l-4.4 5 3.6-8.5c3.4-7.9 3.9-11.2 2.9-17.5-.2-1.1.2-2.6.8-3.4.8-1.1.8-1.3-.1-.7-1.2.7-1.9-1.4-1.3-3.9.1-.6.3-1.9.5-3 .1-1.1.3-2.3.4-2.8 0-.4.7-.7 1.5-.7.7 0 1.6-.9 1.9-2.1.3-1.2 1-1.8 1.6-1.4.7.3.8 0 .5-.9-.5-1.3-.1-1.4 2.5-.6 1.7.5 3.1.5 3.1.1 0-1.4 7.8-2.9 9.1-1.7.9.8 1 .8.5-.2-.4-.6-.2-1.2.3-1.2.6 0 2-.9 3.2-2.1 1.1-1.1 3-2.2 4.2-2.5 3.4-.7 6.8-1.2 11.7-1.9 2.5-.4 4.7-.9 4.9-1.1.2-.2 1.4-.4 2.5-.3 1.2 0-.5 1-3.6 2.2z"/><path d="M143.9 12.2c-.5 1.8-.6 3.8-.1 3.4.7-.8 1.2-3.6.6-3.6-.2 0-.4.1-.5.2zM151.5 12.9c-.3.5-.2 1.2.3 1.5.5.3.9-.1.9-.9 0-1.7-.3-1.9-1.2-.6zM159.5 12.9c-.3.5-.2 1.2.3 1.5.5.3.9-.1.9-.9 0-1.7-.3-1.9-1.2-.6zM167.3 15c-.1 1.1.2 2.2.6 2.4.4.3.7-.4.6-1.4-.2-2.7-1-3.3-1.2-1zM175 14.4c0 .2.8 1 1.8 1.7 1.5 1.3 1.6 1.2.3-.4s-2.1-2.1-2.1-1.3zM136 15.4c0 .2.8 1 1.8 1.7 1.5 1.3 1.6 1.2.3-.4s-2.1-2.1-2.1-1.3zM139 15.4c0 .2.7.7 1.6 1 .8.3 1.2.2.9-.4-.6-1-2.5-1.4-2.5-.6zM113.5 19.1c-.4.6-.5 1.2-.2 1.5.2.3.7-.2 1-1.1.7-1.7.1-2-.8-.4zM167 19.4c0 .2.7.7 1.6 1 .8.3 1.2.2.9-.4-.6-1-2.5-1.4-2.5-.6zM175.9 20.7c-1.3 1.6-1.2 1.7.4.4.9-.7 1.7-1.5 1.7-1.7 0-.8-.8-.3-2.1 1.3zM186.6 20.2c.3.5 1 .6 1.5.3 1.3-.9 1.1-1.2-.6-1.2-.8 0-1.2.4-.9.9zM155.5 21.9c-.3.5-.2 1.2.3 1.5.5.3.9-.1.9-.9 0-1.7-.3-1.9-1.2-.6zM187.4 23.1c-.3.6-.2 1.5.3 2s.9.1.9-1.1c0-2.3-.2-2.4-1.2-.9zM97.5 24.1c-.3.4.2.6 1 .5 2.1-.3 2.8-1.3 1-1.3-.9 0-1.8.4-2 .8zM112 24c-.9.6-1 1-.3 1 .6 0 1.5-.5 1.8-1 .8-1.2.4-1.2-1.5 0zM123.6 24.7c-.6 1.4-.5 1.5.5.6.7-.7 1-1.5.7-1.8-.3-.3-.9.2-1.2 1.2zM126 23.4c0 .2.8 1 1.8 1.7 1.5 1.3 1.6 1.2.3-.4s-2.1-2.1-2.1-1.3zM171.5 24.9c-.3.5-.2 1.2.3 1.5.5.3.9-.1.9-.9 0-1.7-.3-1.9-1.2-.6zM93.5 26c-.3.5-.1 1 .4 1 .6 0 1.1-.5 1.1-1 0-.6-.2-1-.4-1-.3 0-.8.4-1.1 1zM177.5 27.1c-.4.6-.5 1.2-.2 1.5.2.3.7-.2 1-1.1.7-1.7.1-2-.8-.4zM89.6 27.8c-.3.5.1.9.9.9s1.2-.4.9-.9c-.3-.4-.7-.8-.9-.8-.2 0-.6.4-.9.8zM110.6 27.9c-.3.4.4.7 1.4.6 2.7-.2 3.3-1 1-1.2-1.1-.1-2.2.2-2.4.6zM152 28c-.9.6-1 1-.3 1 .6 0 1.5-.5 1.8-1 .8-1.2.4-1.2-1.5 0zM158.4 29.8c.4.3 1.4.7 2.2.8.9.1 1.3 0 1-.4-.4-.3-1.4-.7-2.2-.8-.9-.1-1.3 0-1 .4zM194.7 30.1c.7.7 1.5 1 1.8.7.3-.3-.2-.9-1.2-1.2-1.4-.6-1.5-.5-.6.5zM199.5 29.9c-.3.5-.2 1.2.3 1.5.5.3.9-.1.9-.9 0-1.7-.3-1.9-1.2-.6zM139.9 30.2c-.5 1.8-.6 3.8-.1 3.4.7-.8 1.2-3.6.6-3.6-.2 0-.4.1-.5.2zM87 32.2c0 .4.4.8.9.8.6 0 1.2-.4 1.5-.8.3-.5-.1-.9-.9-.9s-1.5.4-1.5.9zM167 31.5c0 .7 3 1.3 3.4.7.3-.4-.4-.9-1.5-.9-1-.1-1.9 0-1.9.2zM127.4 33.5c.1.8.8 2.1 1.6 2.8 1.2 1 1.2.9.2-.4-.6-.9-.9-1.8-.6-2.1.3-.3.1-.9-.4-1.2-.6-.3-.9.1-.8.9zM94.6 34.2c.3.5 1 .6 1.5.3 1.3-.9 1.1-1.2-.6-1.2-.8 0-1.2.4-.9.9zM134.5 34c-.3.6.1.7.9.4 1.8-.7 2.1-1.4.7-1.4-.6 0-1.3.4-1.6 1zM146.5 34c-.3.6.1.7.9.4 1.8-.7 2.1-1.4.7-1.4-.6 0-1.3.4-1.6 1zM199 33.4c0 .2.7.7 1.6 1 .8.3 1.2.2.9-.4-.6-1-2.5-1.4-2.5-.6zM120 36c-1.2.7-1 .9.7.7 1.2 0 1.9-.5 1.7-.9-.6-1-.6-1-2.4.2zM158.6 36.2c.3.5 1 .6 1.5.3 1.3-.9 1.1-1.2-.6-1.2-.8 0-1.2.4-.9.9zM173.6 36.7c-.6 1.4-.5 1.5.5.6.7-.7 1-1.5.7-1.8-.3-.3-.9.2-1.2 1.2zM206.5 36c-.3.6.1.7.9.4 1.8-.7 2.1-1.4.7-1.4-.6 0-1.3.4-1.6 1zM83.3 38.5c0 .8.4 1.2.9.9.5-.3.6-1 .3-1.5-.9-1.3-1.2-1.1-1.2.6zM95.4 38.4c.1.8.5 1.8.8 2.2.4.3.5-.1.4-1-.1-.8-.5-1.8-.8-2.2-.4-.3-.5.1-.4 1zM163.4 40c0 1.3.4 1.6 1 1 .7-.7.7-1.3 0-2-.6-.6-1-.3-1 1zM118.5 40c-.3.6.1.7.9.4 1.8-.7 2.1-1.4.7-1.4-.6 0-1.3.4-1.6 1zM152.6 39.8c-.3.5.1.9.9.9s1.2-.4.9-.9c-.3-.4-.7-.8-.9-.8-.2 0-.6.4-.9.8zM175 43.4c0 .2.7.7 1.6 1 .8.3 1.2.2.9-.4-.6-1-2.5-1.4-2.5-.6zM207 44c0 .5.5 1 1.1 1 .5 0 .7-.5.4-1-.3-.6-.8-1-1.1-1-.2 0-.4.4-.4 1zM219.5 45.9c-.3.5-.2 1.2.3 1.5.5.3.9-.1.9-.9 0-1.7-.3-1.9-1.2-.6zM67.3 48.5c0 .8.4 1.2.9.9.5-.3.6-1 .3-1.5-.9-1.3-1.2-1.1-1.2.6zM181.5 48c-.3.5-.1 1 .4 1 .6 0 1.1-.5 1.1-1 0-.6-.2-1-.4-1-.3 0-.8.4-1.1 1zM238 51.4c0 .2.8 1 1.8 1.7 1.5 1.3 1.6 1.2.3-.4s-2.1-2.1-2.1-1.3zM227.9 53.2c-.5 1.6-.4 4.6.2 4.2.4-.2.7-1.3.6-2.4-.1-1.7-.5-2.6-.8-1.8zM237.4 55.8c.4.3 1.4.7 2.2.8.9.1 1.3 0 1-.4-.4-.3-1.4-.7-2.2-.8-.9-.1-1.3 0-1 .4zM54.6 61.8c-.2.4.4.8 1.4.8 1 0 1.6-.4 1.4-.8-.3-.4-.9-.8-1.4-.8-.5 0-1.1.4-1.4.8zM61.4 63.8c.4.3 1.4.7 2.2.8.9.1 1.3 0 1-.4-.4-.3-1.4-.7-2.2-.8-.9-.1-1.3 0-1 .4zM78.9 64.3c.6.8.7 1.8.3 2.2-.4.5-.1.5.6.1 1-.6 1-1.1.1-2.2-.6-.8-1.4-1.4-1.6-1.4-.3 0 0 .6.6 1.3zM61.6 68.7c-.6 1.4-.5 1.5.5.6.7-.7 1-1.5.7-1.8-.3-.3-.9.2-1.2 1.2zM72 68c-1.2.7-1 .9.7.7 1.2 0 1.9-.5 1.7-.9-.6-1-.6-1-2.4.2zM52 71.4c0 .2.8 1 1.8 1.7 1.5 1.3 1.6 1.2.3-.4S52 70.6 52 71.4zM47.1 73.3c-.8 1-.7 1.4.2 1.4.8 0 1.4-.6 1.4-1.4 0-.7-.1-1.3-.2-1.3-.2 0-.8.6-1.4 1.3zM62.6 75.8c-.3.5.1.9.9.9s1.2-.4.9-.9c-.3-.4-.7-.8-.9-.8-.2 0-.6.4-.9.8zM78.6 76.2c.3.5 1 .6 1.5.3 1.3-.9 1.1-1.2-.6-1.2-.8 0-1.2.4-.9.9zM72 78c-.9.6-1 1-.3 1 .6 0 1.5-.5 1.8-1 .8-1.2.4-1.2-1.5 0zM61.6 80.7c-.6 1.4-.5 1.5.5.6.7-.7 1-1.5.7-1.8-.3-.3-.9.2-1.2 1.2zM84.6 79.8c-.3.5.1.9.9.9s1.2-.4.9-.9c-.3-.4-.7-.8-.9-.8-.2 0-.6.4-.9.8zM75.3 81.5c0 .8.4 1.2.9.9.5-.3.6-1 .3-1.5-.9-1.3-1.2-1.1-1.2.6zM66.5 82c-.3.6.1.7.9.4 1.8-.7 2.1-1.4.7-1.4-.6 0-1.3.4-1.6 1zM46.6 84c.5.8.9 2.1 1 2.8.2.8.5 1.7.8 2 .4.3.5-.4.3-1.6-.2-1.2-.9-2.8-1.7-3.5-1-1-1.1-.9-.4.3zM53.6 84.2c.3.5 1 .6 1.5.3 1.3-.9 1.1-1.2-.6-1.2-.8 0-1.2.4-.9.9zM79.9 84.7c-1.3 1.6-1.2 1.7.4.4.9-.7 1.7-1.5 1.7-1.7 0-.8-.8-.3-2.1 1.3zM40 86c-.9.6-1 1-.3 1 .6 0 1.5-.5 1.8-1 .8-1.2.4-1.2-1.5 0zM59.6 87.3c.3 1 .9 1.5 1.2 1.2.3-.3 0-1.1-.7-1.8-1-.9-1.1-.8-.5.6zM62.7 88.1c.7.7 1.5 1 1.8.7.3-.3-.2-.9-1.2-1.2-1.4-.6-1.5-.5-.6.5zM88.7 90.1c.7.7 1.5 1 1.8.7.3-.3-.2-.9-1.2-1.2-1.4-.6-1.5-.5-.6.5zM85.6 91.3c.3 1 .9 1.5 1.2 1.2.3-.3 0-1.1-.7-1.8-1-.9-1.1-.8-.5.6zM37.3 92.5c0 .8.4 1.2.9.9.4-.3.8-.9.8-1.5 0-.5-.4-.9-.8-.9-.5 0-.9.7-.9 1.5zM72 92c-.9.6-1 1-.3 1 .6 0 1.5-.5 1.8-1 .8-1.2.4-1.2-1.5 0zM71 94.4c0 .2.8 1 1.8 1.7 1.5 1.3 1.6 1.2.3-.4S71 93.6 71 94.4zM83.7 95c1.5 1.6 5 2.3 5.7 1.2.3-.5-.5-.8-1.7-.7-1.2.1-2.9-.3-3.7-.8-1.2-.9-1.3-.9-.3.3zM62.7 100.1c.7.7 1.5 1 1.8.7.3-.3-.2-.9-1.2-1.2-1.4-.6-1.5-.5-.6.5zM46.5 102.1c-.3.4.2.6 1 .5 2.1-.3 2.8-1.3 1-1.3-.9 0-1.8.4-2 .8zM83.3 102.5c0 .8.4 1.2.9.9.5-.3.6-1 .3-1.5-.9-1.3-1.2-1.1-1.2.6zM62.9 103.7c-1.3 1.6-1.2 1.7.4.4.9-.7 1.7-1.5 1.7-1.7 0-.8-.8-.3-2.1 1.3zM39.9 103.2c-.6 2-.6 3.9 0 4.2.4.3.7-.6.7-2 0-2-.4-3.2-.7-2.2zM47.5 105.9c-.3.5-.2 1.2.3 1.5.5.3.9-.1.9-.9 0-1.7-.3-1.9-1.2-.6zM78.9 107.7c-1.3 1.6-1.2 1.7.4.4.9-.7 1.7-1.5 1.7-1.7 0-.8-.8-.3-2.1 1.3zM86.4 107.8c.4.3 1.4.7 2.2.8.9.1 1.3 0 1-.4-.4-.3-1.4-.7-2.2-.8-.9-.1-1.3 0-1 .4zM35.4 110.4c.1.8.5 1.8.8 2.2.4.3.5-.1.4-1-.1-.8-.5-1.8-.8-2.2-.4-.3-.5.1-.4 1zM47.3 110.5c0 .8.4 1.2.9.9.5-.3.6-1 .3-1.5-.9-1.3-1.2-1.1-1.2.6zM43 110.4c0 .2.8 1 1.8 1.7 1.5 1.3 1.6 1.2.3-.4s-2.1-2.1-2.1-1.3zM78.7 112.1c.7.7 1.5 1 1.8.7.3-.3-.2-.9-1.2-1.2-1.4-.6-1.5-.5-.6.5zM91.5 112.9c-.3.5-.2 1.2.3 1.5.5.3.9-.1.9-.9 0-1.7-.3-1.9-1.2-.6zM41.5 115.1c-.4.6-.5 1.2-.2 1.5.2.3.7-.2 1-1.1.7-1.7.1-2-.8-.4zM54.5 116c-.3.6.1.7.9.4 1.8-.7 2.1-1.4.7-1.4-.6 0-1.3.4-1.6 1zM72 116c-1.2.7-1 .9.7.7 1.2 0 1.9-.5 1.7-.9-.6-1-.6-1-2.4.2zM95.1 117.3c-.8 1-.7 1.4.2 1.4.8 0 1.4-.6 1.4-1.4 0-.7-.1-1.3-.2-1.3-.2 0-.8.6-1.4 1.3zM63 117.4c0 .2.7.7 1.6 1 .8.3 1.2.2.9-.4-.6-1-2.5-1.4-2.5-.6zM47.9 120.2c-.5 1.8-.6 3.8-.1 3.4.7-.8 1.2-3.6.6-3.6-.2 0-.4.1-.5.2zM35 121.4c0 .2.7.7 1.6 1 .8.3 1.2.2.9-.4-.6-1-2.5-1.4-2.5-.6zM31 123.8c0 .5.7.9 1.5.9s1.2-.4.9-.9c-.3-.4-.9-.8-1.5-.8-.5 0-.9.4-.9.8zM78.7 124.1c.7.7 1.5 1 1.8.7.3-.3-.2-.9-1.2-1.2-1.4-.6-1.5-.5-.6.5zM51.9 125.2c-.6 2-.6 3.9 0 4.2.4.3.7-.6.7-2 0-2-.4-3.2-.7-2.2zM60 126c-.9.6-1 1-.3 1 .6 0 1.5-.5 1.8-1 .8-1.2.4-1.2-1.5 0zM72 126c-.9.6-1 1-.3 1 .6 0 1.5-.5 1.8-1 .8-1.2.4-1.2-1.5 0zM79.4 127.4c.1.8.5 1.8.8 2.2.4.3.5-.1.4-1-.1-.8-.5-1.8-.8-2.2-.4-.3-.5.1-.4 1zM91.3 127.5c0 .8.4 1.2.9.9.5-.3.6-1 .3-1.5-.9-1.3-1.2-1.1-1.2.6zM103.3 127.5c0 .8.4 1.2.9.9.5-.3.6-1 .3-1.5-.9-1.3-1.2-1.1-1.2.6zM39.5 127.9c-.3.5-.2 1.2.3 1.5.5.3.9-.1.9-.9 0-1.7-.3-1.9-1.2-.6zM35.5 128.9c-.3.5-.2 1.2.3 1.5.5.3.9-.1.9-.9 0-1.7-.3-1.9-1.2-.6zM87.5 128.9c-.3.5-.2 1.2.3 1.5.5.3.9-.1.9-.9 0-1.7-.3-1.9-1.2-.6zM43 129.4c0 .2.7.7 1.6 1 .8.3 1.2.2.9-.4-.6-1-2.5-1.4-2.5-.6zM55 129.4c0 .2.7.7 1.6 1 .8.3 1.2.2.9-.4-.6-1-2.5-1.4-2.5-.6zM62.5 132c-.3.6.1.7.9.4 1.8-.7 2.1-1.4.7-1.4-.6 0-1.3.4-1.6 1zM89.4 135.4c.1.8.5 1.8.8 2.2.4.3.5-.1.4-1-.1-.8-.5-1.8-.8-2.2-.4-.3-.5.1-.4 1zM95.5 136c.3.5.8 1 1.1 1 .2 0 .4-.5.4-1 0-.6-.5-1-1.1-1-.5 0-.7.4-.4 1zM98 135.4c0 .2.8 1 1.8 1.7 1.5 1.3 1.6 1.2.3-.4s-2.1-2.1-2.1-1.3zM111 136c0 .5.5 1 1.1 1 .5 0 .7-.5.4-1-.3-.6-.8-1-1.1-1-.2 0-.4.4-.4 1zM79.5 137.9c-.3.5-.2 1.2.3 1.5.5.3.9-.1.9-.9 0-1.7-.3-1.9-1.2-.6zM38.7 140.1c.7.7 1.5 1 1.8.7.3-.3-.2-.9-1.2-1.2-1.4-.6-1.5-.5-.6.5zM53.5 140c.5.8 4.2.6 5-.1.2-.3-.8-.5-2.5-.5-1.6 0-2.7.3-2.5.6zM75.6 141.9c-.3.5.2 1.5 1.2 2.2 1.5 1.2 1.6 1.2.5-.2-.7-.9-1-1.9-.6-2.2.3-.4.4-.7 0-.7-.3 0-.8.4-1.1.9zM39.7 142.7c-1 .9-.9 2.3.1 2.3.5 0 .9-.7.9-1.5 0-1.7-.1-1.8-1-.8zM87.4 143.4c.1.8.5 1.8.8 2.2.4.3.5-.1.4-1-.1-.8-.5-1.8-.8-2.2-.4-.3-.5.1-.4 1zM90.9 143.7c-1.3 1.6-1.2 1.7.4.4.9-.7 1.7-1.5 1.7-1.7 0-.8-.8-.3-2.1 1.3zM97.5 143.1c-.4.6-.5 1.2-.2 1.5.2.3.7-.2 1-1.1.7-1.7.1-2-.8-.4zM113.6 143.3c.3 1 .9 1.5 1.2 1.2.3-.3 0-1.1-.7-1.8-1-.9-1.1-.8-.5.6zM62.6 143.8c-.2.4.4.8 1.4.8 1 0 1.6-.4 1.4-.8-.3-.4-.9-.8-1.4-.8-.5 0-1.1.4-1.4.8zM117 143.9c0 .6.4 1.3 1 1.6.6.3.7-.1.4-.9-.7-1.8-1.4-2.1-1.4-.7zM32 146c-.9.6-1 1-.3 1 .6 0 1.5-.5 1.8-1 .8-1.2.4-1.2-1.5 0zM55 148.4c.7.7 1.3.7 2 0 .6-.6.3-1-1-1s-1.6.4-1 1zM85.6 148.2c.3.4 1.1.5 1.9.1 2.1-.7 1.9-1.2-.4-1-1.1 0-1.8.5-1.5.9zM95.9 148.7c-1.3 1.6-1.2 1.7.4.4.9-.7 1.7-1.5 1.7-1.7 0-.8-.8-.3-2.1 1.3zM43.5 149.9c-.3.5-.2 1.2.3 1.5.5.3.9-.1.9-.9 0-1.7-.3-1.9-1.2-.6zM67 153.4c0 .2.7.7 1.6 1 .8.3 1.2.2.9-.4-.6-1-2.5-1.4-2.5-.6zM79.3 154.5c0 .8.4 1.2.9.9.5-.3.6-1 .3-1.5-.9-1.3-1.2-1.1-1.2.6zM40 156c-.9.6-1 1-.3 1 .6 0 1.5-.5 1.8-1 .8-1.2.4-1.2-1.5 0zM88 156c-.9.6-1 1-.3 1 .6 0 1.5-.5 1.8-1 .8-1.2.4-1.2-1.5 0zM46.7 158.1c.7.7 1.5 1 1.8.7.3-.3-.2-.9-1.2-1.2-1.4-.6-1.5-.5-.6.5zM58.7 158.1c.7.7 1.5 1 1.8.7.3-.3-.2-.9-1.2-1.2-1.4-.6-1.5-.5-.6.5zM71.5 157.9c-.3.5-.2 1.2.3 1.5.5.3.9-.1.9-.9 0-1.7-.3-1.9-1.2-.6zM92 158c-.9.6-1 1-.3 1 .6 0 1.5-.5 1.8-1 .8-1.2.4-1.2-1.5 0zM51 158.4c0 .2.8 1 1.8 1.7 1.5 1.3 1.6 1.2.3-.4s-2.1-2.1-2.1-1.3zM47 164.4c.7.7 1.3.7 2 0 .6-.6.3-1-1-1s-1.6.4-1 1zM70.6 164.1c.2.4 1.3.7 2.4.6 2.3-.2 1.7-1-1-1.2-1-.1-1.7.2-1.4.6zM59.6 165.8c-.2.4-.1 1.4.4 2.2.7 1.1.9.9.7-.8-.1-2.4-.3-2.6-1.1-1.4zM83.4 168c0 1.3.4 1.6 1 1 .7-.7.7-1.3 0-2-.6-.6-1-.3-1 1zM105.9 166.2c-.5 1.8-.6 3.8-.1 3.4.7-.8 1.2-3.6.6-3.6-.2 0-.4.1-.5.2zM117.4 167.4c.1.8.5 1.8.8 2.2.4.3.5-.1.4-1-.1-.8-.5-1.8-.8-2.2-.4-.3-.5.1-.4 1zM45.6 167.9c.8.8 4.3.8 3.8 0-.2-.4-1.3-.7-2.4-.6-1 .1-1.7.3-1.4.6zM51 167.9c0 .6.4 1.3 1 1.6.6.3.7-.1.4-.9-.7-1.8-1.4-2.1-1.4-.7zM41.5 171.1c-.4.6-.5 1.2-.2 1.5.2.3.7-.2 1-1.1.7-1.7.1-2-.8-.4zM93.6 171.3c.3 1 .9 1.5 1.2 1.2.3-.3 0-1.1-.7-1.8-1-.9-1.1-.8-.5.6zM49 171.9c0 .6.4 1.3 1 1.6.6.3.7-.1.4-.9-.7-1.8-1.4-2.1-1.4-.7zM68 174c-.9.6-1 1-.3 1 .6 0 1.5-.5 1.8-1 .8-1.2.4-1.2-1.5 0zM103.5 173.9c-.3.5-.2 1.2.3 1.5.5.3.9-.1.9-.9 0-1.7-.3-1.9-1.2-.6zM119.3 174.5c0 .8.4 1.2.9.9.5-.3.6-1 .3-1.5-.9-1.3-1.2-1.1-1.2.6zM91 174.3c0 .2.6 1 1.4 1.6 1.1.9 1.6.9 2.2-.1.4-.7.4-1-.1-.6-.4.4-1.4.3-2.2-.3-.7-.6-1.3-.9-1.3-.6zM39.5 179c1 1.1 2 2 2.3 2 .3 0-.3-.9-1.3-2s-2-2-2.3-2c-.3 0 .3.9 1.3 2zM58.5 178c-.3.6.1.7.9.4 1.8-.7 2.1-1.4.7-1.4-.6 0-1.3.4-1.6 1zM77.6 179.3c.3 1 .9 1.5 1.2 1.2.3-.3 0-1.1-.7-1.8-1-.9-1.1-.8-.5.6zM85.6 180.7c-.6 1.4-.5 1.5.5.6.7-.7 1-1.5.7-1.8-.3-.3-.9.2-1.2 1.2zM95.9 179.2c-.5 1.8-.6 3.8-.1 3.4.7-.8 1.2-3.6.6-3.6-.2 0-.4.1-.5.2zM127 181.4c0 .2.7.7 1.6 1 .8.3 1.2.2.9-.4-.6-1-2.5-1.4-2.5-.6zM75.6 183.3c.3 1 .9 1.5 1.2 1.2.3-.3 0-1.1-.7-1.8-1-.9-1.1-.8-.5.6zM67.3 184.9c0 1.1.5 1.8.9 1.5.4-.3.5-1.1.1-1.9-.7-2.1-1.2-1.9-1 .4zM78.6 184.1c.2.4 1.3.7 2.4.6 2.3-.2 1.7-1-1-1.2-1-.1-1.7.2-1.4.6zM94.6 185.8c-.3.5.1.9.9.9s1.2-.4.9-.9c-.3-.4-.7-.8-.9-.8-.2 0-.6.4-.9.8zM53.6 187.9c.8.8 4.3.8 3.8 0-.2-.4-1.3-.7-2.4-.6-1 .1-1.7.3-1.4.6zM78.6 187.8c-.2.4.4.8 1.4.8 1 0 1.6-.4 1.4-.8-.3-.4-.9-.8-1.4-.8-.5 0-1.1.4-1.4.8zM99.3 190.5c0 .8.4 1.2.9.9.5-.3.6-1 .3-1.5-.9-1.3-1.2-1.1-1.2.6zM123.5 189.9c-.3.5-.2 1.2.3 1.5.5.3.9-.1.9-.9 0-1.7-.3-1.9-1.2-.6zM69.6 192.2c.3.5 1 .6 1.5.3 1.3-.9 1.1-1.2-.6-1.2-.8 0-1.2.4-.9.9zM80.6 191.8c-.3.5.1.9.9.9s1.2-.4.9-.9c-.3-.4-.7-.8-.9-.8-.2 0-.6.4-.9.8zM111 191.4c0 .2.7.7 1.6 1 .8.3 1.2.2.9-.4-.6-1-2.5-1.4-2.5-.6zM47 193.4c0 .2.7.7 1.6 1 .8.3 1.2.2.9-.4-.6-1-2.5-1.4-2.5-.6zM127.6 195.3c.3 1 .9 1.5 1.2 1.2.3-.3 0-1.1-.7-1.8-1-.9-1.1-.8-.5.6zM54.6 195.8c-.2.4.4.8 1.4.8 1 0 1.6-.4 1.4-.8-.3-.4-.9-.8-1.4-.8-.5 0-1.1.4-1.4.8zM63.9 196.7c-1.3 1.6-1.2 1.7.4.4.9-.7 1.7-1.5 1.7-1.7 0-.8-.8-.3-2.1 1.3zM111 196.4c.7.7 1.3.7 2 0 .6-.6.3-1-1-1s-1.6.4-1 1zM99.3 199.1c-.2 2.3.3 2.5 1 .4.4-.8.3-1.6-.1-1.9-.4-.3-.9.4-.9 1.5zM127.4 198.7c1.6 2 3.6 2.3 3.6.6 0-.4-.3-.3-.7 0-.3.4-1.6-.1-2.7-1-2.1-1.8-2.1-1.8-.2.4zM133.4 198.4c.1.8.5 1.8.8 2.2.4.3.5-.1.4-1-.1-.8-.5-1.8-.8-2.2-.4-.3-.5.1-.4 1zM107.6 200.7c-.6 1.4-.5 1.5.5.6.7-.7 1-1.5.7-1.8-.3-.3-.9.2-1.2 1.2zM110.6 199.9c-.3.4.4.7 1.4.6 2.7-.2 3.3-1 1-1.2-1.1-.1-2.2.2-2.4.6zM47.5 200.9c-.3.5-.2 1.2.3 1.5.5.3.9-.1.9-.9 0-1.7-.3-1.9-1.2-.6zM79.4 202.4c.1.8.5 1.8.8 2.2.4.3.5-.1.4-1-.1-.8-.5-1.8-.8-2.2-.4-.3-.5.1-.4 1zM117.6 203.3c.3 1 .9 1.5 1.2 1.2.3-.3 0-1.1-.7-1.8-1-.9-1.1-.8-.5.6zM133.6 203.3c.3 1 .9 1.5 1.2 1.2.3-.3 0-1.1-.7-1.8-1-.9-1.1-.8-.5.6zM47 204.4c0 .2.8 1 1.8 1.7 1.5 1.3 1.6 1.2.3-.4s-2.1-2.1-2.1-1.3zM88 206c-.9.6-1 1-.3 1 .6 0 1.5-.5 1.8-1 .8-1.2.4-1.2-1.5 0zM106 207.4c0 .2.8 1 1.8 1.7 1.5 1.3 1.6 1.2.3-.4s-2.1-2.1-2.1-1.3zM123.9 208.7c-1.2 1.6-1.2 1.7.2.6.9-.7 2-.9 2.4-.5.5.4.5.1.1-.6-.9-1.6-1.1-1.5-2.7.5zM99 209.4c0 .2.7.7 1.6 1 .8.3 1.2.2.9-.4-.6-1-2.5-1.4-2.5-.6zM125.6 212.7c-.6 1.4-.5 1.5.5.6.7-.7 1-1.5.7-1.8-.3-.3-.9.2-1.2 1.2zM128.6 212.2c.3.5 1 .6 1.5.3 1.3-.9 1.1-1.2-.6-1.2-.8 0-1.2.4-.9.9zM61.6 215.3c.3 1 .9 1.5 1.2 1.2.3-.3 0-1.1-.7-1.8-1-.9-1.1-.8-.5.6zM73.5 214.9c-.3.5-.2 1.2.3 1.5.5.3.9-.1.9-.9 0-1.7-.3-1.9-1.2-.6zM115.5 216c.2 2.7 1 3.3 1.2 1 .1-1.1-.2-2.2-.6-2.4-.4-.3-.7.4-.6 1.4zM80 216c-.9.6-1 1-.3 1 .6 0 1.5-.5 1.8-1 .8-1.2.4-1.2-1.5 0zM132.5 216.1c-.3.4.2.6 1 .5 2.1-.3 2.8-1.3 1-1.3-.9 0-1.8.4-2 .8zM66.5 218c-.3.6.1.7.9.4 1.8-.7 2.1-1.4.7-1.4-.6 0-1.3.4-1.6 1zM77.6 220.2c.3.4 1.1.5 1.9.1 2.1-.7 1.9-1.2-.4-1-1.1 0-1.8.5-1.5.9zM102.6 219.8c-.2.4.4.8 1.4.8 1 0 1.6-.4 1.4-.8-.3-.4-.9-.8-1.4-.8-.5 0-1.1.4-1.4.8zM71.5 221.9c-.3.5-.2 1.2.3 1.5.5.3.9-.1.9-.9 0-1.7-.3-1.9-1.2-.6zM75.3 224.5c0 .8.4 1.2.9.9.5-.3.6-1 .3-1.5-.9-1.3-1.2-1.1-1.2.6zM125.6 227.3c.3 1 .9 1.5 1.2 1.2.3-.3 0-1.1-.7-1.8-1-.9-1.1-.8-.5.6zM133.6 227.3c.3 1 .9 1.5 1.2 1.2.3-.3 0-1.1-.7-1.8-1-.9-1.1-.8-.5.6zM79.6 228.2c.3.5 1 .6 1.5.3 1.3-.9 1.1-1.2-.6-1.2-.8 0-1.2.4-.9.9zM110 227.4c0 .2.8 1 1.8 1.7 1.5 1.3 1.6 1.2.3-.4s-2.1-2.1-2.1-1.3zM71.3 229.5c0 .8.4 1.2.9.9.5-.3.6-1 .3-1.5-.9-1.3-1.2-1.1-1.2.6zM86.4 229.8c.4.3 1.4.7 2.2.8.9.1 1.3 0 1-.4-.4-.3-1.4-.7-2.2-.8-.9-.1-1.3 0-1 .4zM102.5 230.1c-.3.4.2.6 1 .5 2.1-.3 2.8-1.3 1-1.3-.9 0-1.8.4-2 .8zM123.6 231.3c.3 1 .9 1.5 1.2 1.2.3-.3 0-1.1-.7-1.8-1-.9-1.1-.8-.5.6zM131.3 231.5c0 .8.4 1.2.9.9.5-.3.6-1 .3-1.5-.9-1.3-1.2-1.1-1.2.6zM93.5 232c.5.8 4.2.6 5-.1.2-.3-.8-.5-2.5-.5-1.6 0-2.7.3-2.5.6zM110.5 232.1c-.3.4.2.6 1 .5 2.1-.3 2.8-1.3 1-1.3-.9 0-1.8.4-2 .8zM115.3 232.9c0 1.1.5 1.8.9 1.5.4-.3.5-1.1.1-1.9-.7-2.1-1.2-1.9-1 .4zM127 232.4c.7.7 1.3.7 2 0 .6-.6.3-1-1-1s-1.6.4-1 1zM71.9 232.2c-.5 1.8-.6 3.8-.1 3.4.7-.8 1.2-3.6.6-3.6-.2 0-.4.1-.5.2zM126.5 236c-.3.6.1.7.9.4 1.8-.7 2.1-1.4.7-1.4-.6 0-1.3.4-1.6 1zM75.5 237.9c-.3.5-.2 1.2.3 1.5.5.3.9-.1.9-.9 0-1.7-.3-1.9-1.2-.6zM66.9 239.7c-1.3 1.6-1.2 1.7.4.4.9-.7 1.7-1.5 1.7-1.7 0-.8-.8-.3-2.1 1.3zM84.6 240.2c.3.5 1 .6 1.5.3 1.3-.9 1.1-1.2-.6-1.2-.8 0-1.2.4-.9.9zM95 240.4c.7.7 1.3.7 2 0 .6-.6.3-1-1-1s-1.6.4-1 1zM105.6 240.2c.3.5 1 .6 1.5.3 1.3-.9 1.1-1.2-.6-1.2-.8 0-1.2.4-.9.9zM121.6 239.8c-.3.5.1.9.9.9s1.2-.4.9-.9c-.3-.4-.7-.8-.9-.8-.2 0-.6.4-.9.8zM79 242.3c0 .2.6 1 1.4 1.6 1.1.9 1.6.9 2.2-.1.4-.7.4-1-.1-.6-.4.4-1.4.3-2.2-.3-.7-.6-1.3-.9-1.3-.6zM111.5 243c-.4.6-1.1.7-1.7.4-.7-.4-.8-.2-.4.5.6.9 1.1.9 2.2 0 1.4-1.1 1.8-1.9 1-1.9-.3 0-.8.5-1.1 1zM72 244.5c-.7.8-.9 1.5-.5 1.5s.1.8-.6 1.7c-1.3 1.6-1.2 1.7.4.4.9-.8 1.5-1.6 1.2-1.9-.3-.3 0-1.1.6-1.9.6-.7.9-1.3.6-1.3-.2 0-1 .7-1.7 1.5zM94.6 243.8c-.2.4.4.8 1.4.8 1 0 1.6-.4 1.4-.8-.3-.4-.9-.8-1.4-.8-.5 0-1.1.4-1.4.8zM126.6 244.1c.2.4 1.3.7 2.4.6 2.3-.2 1.7-1-1-1.2-1-.1-1.7.2-1.4.6zM125.6 248.2c.3.4 1.1.5 1.9.1 2.1-.7 1.9-1.2-.4-1-1.1 0-1.8.5-1.5.9zM133.3 248.5c0 .8.4 1.2.9.9.5-.3.6-1 .3-1.5-.9-1.3-1.2-1.1-1.2.6zM139.6 248.7c-.6 1.4-.5 1.5.5.6.7-.7 1-1.5.7-1.8-.3-.3-.9.2-1.2 1.2zM71.5 249.9c-.3.5-.2 1.2.3 1.5.5.3.9-.1.9-.9 0-1.7-.3-1.9-1.2-.6zM121.5 251.1c-.4.6-.5 1.2-.2 1.5.2.3.7-.2 1-1.1.7-1.7.1-2-.8-.4zM110.9 255.7c-1.3 1.6-1.2 1.7.4.4.9-.7 1.7-1.5 1.7-1.7 0-.8-.8-.3-2.1 1.3zM131.3 255.5c0 .8.4 1.2.9.9.5-.3.6-1 .3-1.5-.9-1.3-1.2-1.1-1.2.6zM120 256c-1.2.7-1 .9.7.7 1.2 0 1.9-.5 1.7-.9-.6-1-.6-1-2.4.2zM144 256c-.9.6-1 1-.3 1 .6 0 1.5-.5 1.8-1 .8-1.2.4-1.2-1.5 0zM80 258c-.9.6-1 1-.3 1 .6 0 1.5-.5 1.8-1 .8-1.2.4-1.2-1.5 0zM94.6 258.2c.3.5 1 .6 1.5.3 1.3-.9 1.1-1.2-.6-1.2-.8 0-1.2.4-.9.9zM79.4 261.4c.1.8.5 1.8.8 2.2.4.3.5-.1.4-1-.1-.8-.5-1.8-.8-2.2-.4-.3-.5.1-.4 1zM95.9 260.2c-.5 1.8-.6 3.8-.1 3.4.7-.8 1.2-3.6.6-3.6-.2 0-.4.1-.5.2zM123.5 261.9c-.3.5-.2 1.2.3 1.5.5.3.9-.1.9-.9 0-1.7-.3-1.9-1.2-.6zM110.6 264.2c.3.5 1 .6 1.5.3 1.3-.9 1.1-1.2-.6-1.2-.8 0-1.2.4-.9.9zM95.6 265.8c-.3.5.1.9.9.9s1.2-.4.9-.9c-.3-.4-.7-.8-.9-.8-.2 0-.6.4-.9.8zM110.9 267.7c-1.3 1.6-1.2 1.7.4.4.9-.7 1.7-1.5 1.7-1.7 0-.8-.8-.3-2.1 1.3zM87 268.4c.7.7 1.3.7 2 0 .6-.6.3-1-1-1s-1.6.4-1 1zM120 268c-.9.6-1 1-.3 1 .6 0 1.5-.5 1.8-1 .8-1.2.4-1.2-1.5 0zM128.6 267.8c-.3.5.1.9.9.9s1.2-.4.9-.9c-.3-.4-.7-.8-.9-.8-.2 0-.6.4-.9.8zM83.5 268.9c-.3.5-.2 1.2.3 1.5.5.3.9-.1.9-.9 0-1.7-.3-1.9-1.2-.6zM94.6 270.2c.3.5 1 .6 1.5.3 1.3-.9 1.1-1.2-.6-1.2-.8 0-1.2.4-.9.9zM126 269.4c0 .2.8 1 1.8 1.7 1.5 1.3 1.6 1.2.3-.4s-2.1-2.1-2.1-1.3zM142.9 271.7c-1.3 1.6-1.2 1.7.4.4.9-.7 1.7-1.5 1.7-1.7 0-.8-.8-.3-2.1 1.3zM87 271.8c0 .5.7.9 1.5.9s1.2-.4.9-.9c-.3-.4-.9-.8-1.5-.8-.5 0-.9.4-.9.8zM110 271.4c0 .2.8 1 1.8 1.7 1.5 1.3 1.6 1.2.3-.4s-2.1-2.1-2.1-1.3zM133.3 272.5c0 .8.4 1.2.9.9.5-.3.6-1 .3-1.5-.9-1.3-1.2-1.1-1.2.6zM137.5 272.1c-.3.4.2.6 1 .5 2.1-.3 2.8-1.3 1-1.3-.9 0-1.8.4-2 .8zM95.9 272.2c-.5 1.8-.6 3.8-.1 3.4.7-.8 1.2-3.6.6-3.6-.2 0-.4.1-.5.2zM99.3 273.5c0 .8.4 1.2.9.9.5-.3.6-1 .3-1.5-.9-1.3-1.2-1.1-1.2.6zM115 273.4c0 .2.7.7 1.6 1 .8.3 1.2.2.9-.4-.6-1-2.5-1.4-2.5-.6zM89.6 277.3c.3 1 .9 1.5 1.2 1.2.3-.3 0-1.1-.7-1.8-1-.9-1.1-.8-.5.6zM94.7 282.1c.7.7 1.5 1 1.8.7.3-.3-.2-.9-1.2-1.2-1.4-.6-1.5-.5-.6.5zM138.5 282c-.3.6.1.7.9.4 1.8-.7 2.1-1.4.7-1.4-.6 0-1.3.4-1.6 1zM118.6 283.8c-.2.4.4.8 1.4.8 1 0 1.6-.4 1.4-.8-.3-.4-.9-.8-1.4-.8-.5 0-1.1.4-1.4.8zM135.3 287c-.1 1.1.2 2.2.6 2.4.4.3.7-.4.6-1.4-.2-2.7-1-3.3-1.2-1zM98.9 287.7c-1.3 1.6-1.2 1.7.4.4.9-.7 1.7-1.5 1.7-1.7 0-.8-.8-.3-2.1 1.3zM131.4 288c0 1.3.4 1.6 1 1 .7-.7.7-1.3 0-2-.6-.6-1-.3-1 1zM139 289.4c0 .2.7.7 1.6 1 .8.3 1.2.2.9-.4-.6-1-2.5-1.4-2.5-.6zM147.3 290.5c0 .8.4 1.2.9.9.5-.3.6-1 .3-1.5-.9-1.3-1.2-1.1-1.2.6zM109.6 291.3c.3 1 .9 1.5 1.2 1.2.3-.3 0-1.1-.7-1.8-1-.9-1.1-.8-.5.6zM135 291.4c0 .2.7.7 1.6 1 .8.3 1.2.2.9-.4-.6-1-2.5-1.4-2.5-.6zM123.3 295c-.1 1.1.2 2.2.6 2.4.4.3.7-.4.6-1.4-.2-2.7-1-3.3-1.2-1zM107.4 296c0 1.3.4 1.6 1 1 .7-.7.7-1.3 0-2-.6-.6-1-.3-1 1zM113.5 299.1c-.4.6-.5 1.2-.2 1.5.2.3.7-.2 1-1.1.7-1.7.1-2-.8-.4zM143 298.3c0 .2.6 1 1.4 1.6 1.1.9 1.6.9 2.2-.1.4-.7.4-1-.1-.6-.4.4-1.4.3-2.2-.3-.7-.6-1.3-.9-1.3-.6zM133.6 299.8c-.3.4.4.9 1.5.9 2.3.2 2.5-.3.4-1-.8-.4-1.6-.3-1.9.1zM115.5 303.1c-.4.6-.5 1.2-.2 1.5.2.3.7-.2 1-1.1.7-1.7.1-2-.8-.4zM134.9 303.7c-1.3 1.6-1.2 1.7.4.4 1.6-1.3 2.1-2.1 1.3-2.1-.2 0-1 .8-1.7 1.7zM111.9 304.7c-1.3 1.6-1.2 1.7.4.4.9-.7 1.7-1.5 1.7-1.7 0-.8-.8-.3-2.1 1.3zM131.5 303.9c-.3.5-.2 1.2.3 1.5.5.3.9-.1.9-.9 0-1.7-.3-1.9-1.2-.6zM114.9 308.3c.6.8.7 1.8.3 2.2-.4.5-.1.5.6.1 1-.6 1-1.1.1-2.2-.6-.8-1.4-1.4-1.6-1.4-.3 0 0 .6.6 1.3zM129 307.9c0 .6.4 1.3 1 1.6.6.3.7-.1.4-.9-.7-1.8-1.4-2.1-1.4-.7zM139.9 310.2c-.5.9-.5 4.8-.1 4.3.6-.6 1.1-4.5.5-4.5-.2 0-.4.1-.4.2zM121.6 311.8c-.3.5.1.9.9.9s1.2-.4.9-.9c-.3-.4-.7-.8-.9-.8-.2 0-.6.4-.9.8zM129.5 323.1c-.4.6-.5 1.2-.2 1.5.2.3.7-.2 1-1.1.7-1.7.1-2-.8-.4zM139.6 325.8c-.2.4-.1 1.4.4 2.2.7 1.1.9.9.7-.8-.1-2.4-.3-2.6-1.1-1.4zM362.7 14.1c.7.7 1.5 1 1.8.7.3-.3-.2-.9-1.2-1.2-1.4-.6-1.5-.5-.6.5zM339.3 16.7c0 .9.4 1 1.4.2.7-.6 1.3-1.2 1.3-1.4 0-.1-.6-.2-1.3-.2-.8 0-1.4.6-1.4 1.4zM343 15.9c0 .6.4 1.3 1 1.6.6.3.7-.1.4-.9-.7-1.8-1.4-2.1-1.4-.7zM391.3 16.5c0 .8.4 1.2.9.9.5-.3.6-1 .3-1.5-.9-1.3-1.2-1.1-1.2.6zM359.3 17.5c0 .8.4 1.2.9.9.5-.3.6-1 .3-1.5-.9-1.3-1.2-1.1-1.2.6zM383.5 19c-.4.6-1.1.7-1.7.4-.7-.4-.8-.2-.4.5.6.9 1.1.9 2.2 0 1.4-1.1 1.8-1.9 1-1.9-.3 0-.8.5-1.1 1zM391 19.5c0 .7 3 1.3 3.4.7.3-.4-.4-.9-1.5-.9-1-.1-1.9 0-1.9.2zM341.4 23.4c.1.8.5 1.8.8 2.2.4.3.5-.1.4-1-.1-.8-.5-1.8-.8-2.2-.4-.3-.5.1-.4 1zM357.9 22.2c-.5 1.8-.6 3.8-.1 3.4.7-.8 1.2-3.6.6-3.6-.2 0-.4.1-.5.2zM315.9 24.7c-1.3 1.6-1.2 1.7.4.4 1.6-1.3 2.1-2.1 1.3-2.1-.2 0-1 .8-1.7 1.7zM320 24c-.9.6-1 1-.3 1 .6 0 1.5-.5 1.8-1 .8-1.2.4-1.2-1.5 0zM415.5 24.9c-.3.5-.2 1.2.3 1.5.5.3.9-.1.9-.9 0-1.7-.3-1.9-1.2-.6zM326.5 26.1c-.3.4.2.6 1 .5 2.1-.3 2.8-1.3 1-1.3-.9 0-1.8.4-2 .8zM399.5 25.9c-.3.5-.2 1.2.3 1.5.5.3.9-.1.9-.9 0-1.7-.3-1.9-1.2-.6zM410.5 26c-.3.6.1.7.9.4 1.8-.7 2.1-1.4.7-1.4-.6 0-1.3.4-1.6 1zM319 27.4c0 .2.7.7 1.6 1 .8.3 1.2.2.9-.4-.6-1-2.5-1.4-2.5-.6zM390.7 28.1c.7.7 1.5 1 1.8.7.3-.3-.2-.9-1.2-1.2-1.4-.6-1.5-.5-.6.5zM343.3 30.5c0 .8.4 1.2.9.9.5-.3.6-1 .3-1.5-.9-1.3-1.2-1.1-1.2.6zM386.7 30.1c.7.7 1.5 1 1.8.7.3-.3-.2-.9-1.2-1.2-1.4-.6-1.5-.5-.6.5zM407.3 31.1c-.2 2.3.3 2.5 1 .4.4-.8.3-1.6-.1-1.9-.4-.3-.9.4-.9 1.5zM358.9 31.7c-1.3 1.6-1.2 1.7.4.4 1.6-1.3 2.1-2.1 1.3-2.1-.2 0-1 .8-1.7 1.7zM382.9 31.7c-1.3 1.6-1.2 1.7.4.4 1.6-1.3 2.1-2.1 1.3-2.1-.2 0-1 .8-1.7 1.7zM403 30.4c0 .2.8 1 1.8 1.7 1.5 1.3 1.6 1.2.3-.4s-2.1-2.1-2.1-1.3zM418.5 32c1 1.1 2 2 2.3 2 .3 0-.3-.9-1.3-2s-2-2-2.3-2c-.3 0 .3.9 1.3 2zM303.5 32.1c-.3.4.2.6 1 .5 2.1-.3 2.8-1.3 1-1.3-.9 0-1.8.4-2 .8zM309.6 32.2c.3.5 1 .6 1.5.3 1.3-.9 1.1-1.2-.6-1.2-.8 0-1.2.4-.9.9zM313.6 31.8c-.3.5.1.9.9.9s1.2-.4.9-.9c-.3-.4-.7-.8-.9-.8-.2 0-.6.4-.9.8zM328 31.4c0 .2.8 1 1.8 1.7 1.5 1.3 1.6 1.2.3-.4s-2.1-2.1-2.1-1.3zM379.6 32.7c-.6 1.4-.5 1.5.5.6.7-.7 1-1.5.7-1.8-.3-.3-.9.2-1.2 1.2zM394.5 34c-.3.6.1.7.9.4 1.8-.7 2.1-1.4.7-1.4-.6 0-1.3.4-1.6 1zM423 33.4c0 .2.7.7 1.6 1 .8.3 1.2.2.9-.4-.6-1-2.5-1.4-2.5-.6zM413.6 35.3c.3 1 .9 1.5 1.2 1.2.3-.3 0-1.1-.7-1.8-1-.9-1.1-.8-.5.6zM336.6 36.2c.3.5 1 .6 1.5.3 1.3-.9 1.1-1.2-.6-1.2-.8 0-1.2.4-.9.9zM353 35.9c0 .6.4 1.3 1 1.6.6.3.7-.1.4-.9-.7-1.8-1.4-2.1-1.4-.7zM430.6 35.8c-.3.5.1.9.9.9s1.5-.4 1.5-.9c0-.4-.4-.8-.9-.8-.6 0-1.2.4-1.5.8zM371.9 37.2c-.5 1.5-.4 5 .1 5.3.3.2.6-.9.6-2.6 0-2.4-.3-3.7-.7-2.7zM363.4 39.1c-.3.6-.2 1.5.3 2s.9.1.9-1.1c0-2.3-.2-2.4-1.2-.9zM381.6 39.3c.3 1 .9 1.5 1.2 1.2.3-.3 0-1.1-.7-1.8-1-.9-1.1-.8-.5.6zM304.6 39.8c-.3.5.1.9.9.9s1.2-.4.9-.9c-.3-.4-.7-.8-.9-.8-.2 0-.6.4-.9.8zM318 39.4c0 .2.8 1 1.8 1.7 1.5 1.3 1.6 1.2.3-.4s-2.1-2.1-2.1-1.3zM403 39.9c0 .6.4 1.3 1 1.6.6.3.7-.1.4-.9-.7-1.8-1.4-2.1-1.4-.7zM310.4 41.8c.4.3 1.4.7 2.2.8.9.1 1.3 0 1-.4-.4-.3-1.4-.7-2.2-.8-.9-.1-1.3 0-1 .4zM323 41.4c0 .2.7.7 1.6 1 .8.3 1.2.2.9-.4-.6-1-2.5-1.4-2.5-.6zM416 42.5c-.7.8-1.7 1.2-2.3.8-.6-.4-.7-.1-.3.6.6.9 1.3.8 2.7-.5 1-.9 1.9-1.9 1.9-2.1 0-.7-.8-.2-2 1.2zM382 43.4c0 .2.8 1 1.8 1.7 1.5 1.3 1.6 1.2.3-.4s-2.1-2.1-2.1-1.3zM389.6 43.9c.8.8 4.3.8 3.8 0-.2-.4-1.3-.7-2.4-.6-1 .1-1.7.3-1.4.6zM423 43.5c0 .7 3 1.3 3.4.7.3-.4-.4-.9-1.5-.9-1-.1-1.9 0-1.9.2zM441 44.1c0 .5.5.7 1 .4.6-.3 1-.8 1-1.1 0-.2-.4-.4-1-.4-.5 0-1 .5-1 1.1zM327.6 45.9c-.3.4.4 1.7 1.7 2.7 2.2 1.9 2.2 1.9.4-.2-.9-1.1-1.4-2.4-1-2.7.3-.4.4-.7 0-.7-.3 0-.8.4-1.1.9zM335 46.4c0 .2.8 1 1.8 1.7 1.5 1.3 1.6 1.2.3-.4s-2.1-2.1-2.1-1.3zM287.6 47.8c-.3.5.1.9.9.9s1.2-.4.9-.9c-.3-.4-.7-.8-.9-.8-.2 0-.6.4-.9.8zM353 47.9c0 .6.4 1.3 1 1.6.6.3.7-.1.4-.9-.7-1.8-1.4-2.1-1.4-.7zM407.6 47.9c-.3.4.6.7 1.9.7 1.4 0 2.2-.2 1.9-.5-.8-.8-3.4-1-3.8-.2zM431.4 47.8c.4.3 1.4.7 2.2.8.9.1 1.3 0 1-.4-.4-.3-1.4-.7-2.2-.8-.9-.1-1.3 0-1 .4zM436.6 48.2c.3.5 1 .6 1.5.3 1.3-.9 1.1-1.2-.6-1.2-.8 0-1.2.4-.9.9zM447.3 49.5c0 .8.4 1.2.9.9.5-.3.6-1 .3-1.5-.9-1.3-1.2-1.1-1.2.6zM371 49.4c0 .2.7.7 1.6 1 .8.3 1.2.2.9-.4-.6-1-2.5-1.4-2.5-.6zM381.6 51.3c.3 1 .9 1.5 1.2 1.2.3-.3 0-1.1-.7-1.8-1-.9-1.1-.8-.5.6zM431 50.3c0 .2.6 1 1.4 1.6 1.1.9 1.6.9 2.2-.1.4-.7.4-1-.1-.6-.4.4-1.4.3-2.2-.3-.7-.6-1.3-.9-1.3-.6zM449.5 51.1c-.4.6-.5 1.2-.2 1.5.2.3.7-.2 1-1.1.7-1.7.1-2-.8-.4zM314.7 52.1c.7.7 1.5 1 1.8.7.3-.3-.2-.9-1.2-1.2-1.4-.6-1.5-.5-.6.5zM360.6 52.2c.3.5 1 .6 1.5.3 1.3-.9 1.1-1.2-.6-1.2-.8 0-1.2.4-.9.9zM419 52.4c.7.7 1.3.7 2 0 .6-.6.3-1-1-1s-1.6.4-1 1zM424 52c-.9.6-1 1-.3 1 .6 0 1.5-.5 1.8-1 .8-1.2.4-1.2-1.5 0zM310.9 53.7c-1.3 1.6-1.2 1.7.4.4.9-.7 1.7-1.5 1.7-1.7 0-.8-.8-.3-2.1 1.3zM428 54c-.9.6-1 1-.3 1 .6 0 1.5-.5 1.8-1 .8-1.2.4-1.2-1.5 0zM443.3 55c-.1 1.1.2 2.2.6 2.4.4.3.7-.4.6-1.4-.2-2.7-1-3.3-1.2-1zM288.6 55.8c-.3.5.1.9.9.9s1.2-.4.9-.9c-.3-.4-.7-.8-.9-.8-.2 0-.6.4-.9.8zM334.5 56.1c-.3.4.2.6 1 .5 2.1-.3 2.8-1.3 1-1.3-.9 0-1.8.4-2 .8zM439.5 56c.3.5.8 1 1.1 1 .2 0 .4-.5.4-1 0-.6-.5-1-1.1-1-.5 0-.7.4-.4 1zM302.6 57.8c-.3.5.1.9.9.9s1.2-.4.9-.9c-.3-.4-.7-.8-.9-.8-.2 0-.6.4-.9.8zM347 57.4c0 .2.7.7 1.6 1 .8.3 1.2.2.9-.4-.6-1-2.5-1.4-2.5-.6zM333.6 60.7c-.6 1.4-.5 1.5.5.6.7-.7 1-1.5.7-1.8-.3-.3-.9.2-1.2 1.2zM449 59.9c0 .6.4 1.3 1 1.6.6.3.7-.1.4-.9-.7-1.8-1.4-2.1-1.4-.7zM443.9 64.7c-1.2 1.6-1.2 1.7.2.6.9-.7 2-.9 2.4-.5.5.4.5.1.1-.6-.9-1.6-1.1-1.5-2.7.5zM455 65.4c0 .2.7.7 1.6 1 .8.3 1.2.2.9-.4-.6-1-2.5-1.4-2.5-.6zM459.5 66c.3.5.8 1 1.1 1 .2 0 .4-.5.4-1 0-.6-.5-1-1.1-1-.5 0-.7.4-.4 1zM445.6 68.7c-.6 1.4-.5 1.5.5.6.7-.7 1-1.5.7-1.8-.3-.3-.9.2-1.2 1.2zM462 75.4c0 .2.8 1 1.8 1.7 1.5 1.3 1.6 1.2.3-.4s-2.1-2.1-2.1-1.3zM456 78c-.9.6-1 1-.3 1 .6 0 1.5-.5 1.8-1 .8-1.2.4-1.2-1.5 0zM445.6 83.3c.3 1 .9 1.5 1.2 1.2.3-.3 0-1.1-.7-1.8-1-.9-1.1-.8-.5.6zM463.9 84.7c-1.2 1.6-1.2 1.7.2.6.9-.7 2-.9 2.4-.5.5.4.5.1.1-.6-.9-1.6-1.1-1.5-2.7.5zM469.3 88.5c0 .8.4 1.2.9.9.5-.3.6-1 .3-1.5-.9-1.3-1.2-1.1-1.2.6zM435.4 94.4c.1.8.5 1.8.8 2.2.4.3.5-.1.4-1-.1-.8-.5-1.8-.8-2.2-.4-.3-.5.1-.4 1zM473 99.9c0 .6.4 1.3 1 1.6.6.3.7-.1.4-.9-.7-1.8-1.4-2.1-1.4-.7zM444 102c-.9.6-1 1-.3 1 .6 0 1.5-.5 1.8-1 .8-1.2.4-1.2-1.5 0zM476.6 103.8c-.3.5.1.9.9.9s1.2-.4.9-.9c-.3-.4-.7-.8-.9-.8-.2 0-.6.4-.9.8zM471.3 105.7c.4.3.1 1.3-.6 2.2-1.1 1.4-1 1.4.5.2 1.6-1.2 1.6-3.1.1-3.1-.4 0-.3.3 0 .7zM437.6 107.3c.3 1 .9 1.5 1.2 1.2.3-.3 0-1.1-.7-1.8-1-.9-1.1-.8-.5.6zM447.6 108.2c.3.5 1 .6 1.5.3 1.3-.9 1.1-1.2-.6-1.2-.8 0-1.2.4-.9.9zM461.4 108.2c-.4.7-.4 1 .1.6.4-.4 1.5-.2 2.4.5 1.4 1.1 1.4 1 .2-.6-1.6-2-1.8-2.1-2.7-.5zM425.5 110.9c-.3.5-.2 1.2.3 1.5.5.3.9-.1.9-.9 0-1.7-.3-1.9-1.2-.6zM435 110.3c0 .2.6 1 1.4 1.6 1.1.9 1.6.9 2.2-.1.4-.7.4-1-.1-.6-.4.4-1.4.3-2.2-.3-.7-.6-1.3-.9-1.3-.6zM447 110.4c0 .2.8 1 1.8 1.7 1.5 1.3 1.6 1.2.3-.4s-2.1-2.1-2.1-1.3zM457.6 111.8c-.3.5.1.9.9.9s1.2-.4.9-.9c-.3-.4-.7-.8-.9-.8-.2 0-.6.4-.9.8zM429.6 115.3c.3 1 .9 1.5 1.2 1.2.3-.3 0-1.1-.7-1.8-1-.9-1.1-.8-.5.6zM477.6 115.3c.3 1 .9 1.5 1.2 1.2.3-.3 0-1.1-.7-1.8-1-.9-1.1-.8-.5.6zM421.5 118c-.3.5-.1 1 .4 1 .6 0 1.1-.5 1.1-1 0-.6-.2-1-.4-1-.3 0-.8.4-1.1 1zM441.9 118.2c-.5 1.8-.6 3.8-.1 3.4.7-.8 1.2-3.6.6-3.6-.2 0-.4.1-.5.2zM448 120c-1.2.7-1 .9.7.7 1.2 0 1.9-.5 1.7-.9-.6-1-.6-1-2.4.2zM463 120.4c.7.7 1.3.7 2 0 .6-.6.3-1-1-1s-1.6.4-1 1zM467 119.9c0 .6.4 1.3 1 1.6.6.3.7-.1.4-.9-.7-1.8-1.4-2.1-1.4-.7zM478.6 120.2c.3.5 1 .6 1.5.3 1.3-.9 1.1-1.2-.6-1.2-.8 0-1.2.4-.9.9zM454.4 121.8c.4.3 1.4.7 2.2.8.9.1 1.3 0 1-.4-.4-.3-1.4-.7-2.2-.8-.9-.1-1.3 0-1 .4zM479.5 123c-.4.6-1.1.7-1.7.4-.7-.4-.8-.2-.4.5.6.9 1.1.9 2.2 0 1.4-1.1 1.8-1.9 1-1.9-.3 0-.8.5-1.1 1zM462.5 124c-.3.6.1.7.9.4 1.8-.7 2.1-1.4.7-1.4-.6 0-1.3.4-1.6 1zM439.5 125.9c-.3.5-.2 1.2.3 1.5.5.3.9-.1.9-.9 0-1.7-.3-1.9-1.2-.6zM414.5 128c-.3.6.1.7.9.4 1.8-.7 2.1-1.4.7-1.4-.6 0-1.3.4-1.6 1zM451.5 127.9c-.3.5-.2 1.2.3 1.5.5.3.9-.1.9-.9 0-1.7-.3-1.9-1.2-.6zM474 127.4c0 .2.8 1 1.8 1.7 1.5 1.3 1.6 1.2.3-.4s-2.1-2.1-2.1-1.3zM459.5 128.9c-.3.5-.2 1.2.3 1.5.5.3.9-.1.9-.9 0-1.7-.3-1.9-1.2-.6zM429.5 132c-.2.3.5.6 1.5.7 1.1.1 2.2-.2 2.4-.5.3-.4-.4-.8-1.5-.8s-2.2.3-2.4.6zM463.6 132.2c.3.5 1 .6 1.5.3 1.3-.9 1.1-1.2-.6-1.2-.8 0-1.2.4-.9.9zM455.4 133.4c.1.8.5 1.8.8 2.2.4.3.5-.1.4-1-.1-.8-.5-1.8-.8-2.2-.4-.3-.5.1-.4 1zM444 134c-.9.6-1 1-.3 1 .6 0 1.5-.5 1.8-1 .8-1.2.4-1.2-1.5 0zM468 134c-.9.6-1 1-.3 1 .6 0 1.5-.5 1.8-1 .8-1.2.4-1.2-1.5 0zM419.5 135.1c-.4.6-.5 1.2-.2 1.5.2.3.7-.2 1-1.1.7-1.7.1-2-.8-.4zM430.5 136c-.3.6.1.7.9.4 1.8-.7 2.1-1.4.7-1.4-.6 0-1.3.4-1.6 1zM410.5 138c-.3.6.1.7.9.4 1.8-.7 2.1-1.4.7-1.4-.6 0-1.3.4-1.6 1zM447.3 138.5c0 .8.4 1.2.9.9.5-.3.6-1 .3-1.5-.9-1.3-1.2-1.1-1.2.6zM455.3 138.5c0 .8.4 1.2.9.9.5-.3.6-1 .3-1.5-.9-1.3-1.2-1.1-1.2.6zM437.6 139.3c.3 1 .9 1.5 1.2 1.2.3-.3 0-1.1-.7-1.8-1-.9-1.1-.8-.5.6zM402.6 139.8c-.3.5.1.9.9.9s1.2-.4.9-.9c-.3-.4-.7-.8-.9-.8-.2 0-.6.4-.9.8zM429.6 140.7c-.6 1.4-.5 1.5.5.6.7-.7 1-1.5.7-1.8-.3-.3-.9.2-1.2 1.2zM473 139.9c0 .6.4 1.3 1 1.6.6.3.7-.1.4-.9-.7-1.8-1.4-2.1-1.4-.7zM407.4 142.4c.1.8.5 1.8.8 2.2.4.3.5-.1.4-1-.1-.8-.5-1.8-.8-2.2-.4-.3-.5.1-.4 1zM447.5 141.9c-.3.5-.2 1.2.3 1.5.5.3.9-.1.9-.9 0-1.7-.3-1.9-1.2-.6zM403 142.4c0 .2.8 1 1.8 1.7 1.5 1.3 1.6 1.2.3-.4s-2.1-2.1-2.1-1.3zM459.3 143.5c0 .8.4 1.2.9.9.5-.3.6-1 .3-1.5-.9-1.3-1.2-1.1-1.2.6zM455.5 144.9c-.3.5-.2 1.2.3 1.5.5.3.9-.1.9-.9 0-1.7-.3-1.9-1.2-.6zM422.5 146c-.3.6.1.7.9.4 1.8-.7 2.1-1.4.7-1.4-.6 0-1.3.4-1.6 1zM397.6 148.7c-.6 1.4-.5 1.5.5.6.7-.7 1-1.5.7-1.8-.3-.3-.9.2-1.2 1.2zM415.6 147.8c-.3.5.1.9.9.9s1.2-.4.9-.9c-.3-.4-.7-.8-.9-.8-.2 0-.6.4-.9.8zM461.4 148.2c-.4.7-.4 1 .1.6.4-.4 1.5-.2 2.4.5 1.4 1.1 1.4 1 .2-.6-1.6-2-1.8-2.1-2.7-.5zM450.7 150.1c.7.7 1.5 1 1.8.7.3-.3-.2-.9-1.2-1.2-1.4-.6-1.5-.5-.6.5zM403 151.9c0 .6.4 1.3 1 1.6.6.3.7-.1.4-.9-.7-1.8-1.4-2.1-1.4-.7zM457.5 151.9c-.3.5-.2 1.2.3 1.5.5.3.9-.1.9-.9 0-1.7-.3-1.9-1.2-.6zM408.6 155.8c-.3.5.1.9.9.9s1.2-.4.9-.9c-.3-.4-.7-.8-.9-.8-.2 0-.6.4-.9.8zM421.6 156.2c.3.4 1.1.5 1.9.1 2.1-.7 1.9-1.2-.4-1-1.1 0-1.8.5-1.5.9zM446.5 156c-.3.6.1.7.9.4 1.8-.7 2.1-1.4.7-1.4-.6 0-1.3.4-1.6 1zM459.5 159c-.4.6-1 .8-1.4.6-.4-.3-1.3 0-2.1.5-1.1.7-1 .8.8.6 2-.3 5.6-2.7 4-2.7-.4 0-1 .5-1.3 1zM470.9 159.7c-1.3 1.6-1.2 1.7.4.4 1.6-1.3 2.1-2.1 1.3-2.1-.2 0-1 .8-1.7 1.7zM392.6 159.8c-.3.5.1.9.9.9s1.2-.4.9-.9c-.3-.4-.7-.8-.9-.8-.2 0-.6.4-.9.8zM396.6 160.2c.3.5 1 .6 1.5.3 1.3-.9 1.1-1.2-.6-1.2-.8 0-1.2.4-.9.9zM410.9 160.3c.6.8.7 1.8.3 2.2-.4.5-.1.5.6.1 1-.6 1-1.1.1-2.2-.6-.8-1.4-1.4-1.6-1.4-.3 0 0 .6.6 1.3zM445.6 160.7c-.6 1.4-.5 1.5.5.6.7-.7 1-1.5.7-1.8-.3-.3-.9.2-1.2 1.2zM385.5 163.1c-.4.6-.5 1.2-.2 1.5.2.3.7-.2 1-1.1.7-1.7.1-2-.8-.4zM400.1 164.4c-.9 1.1-.9 1.6.1 2.2.7.4 1 .4.6-.1-.4-.4-.3-1.4.3-2.2.6-.7.9-1.3.6-1.3-.2 0-1 .6-1.6 1.4zM406.6 166.2c.3.5 1 .6 1.5.3 1.3-.9 1.1-1.2-.6-1.2-.8 0-1.2.4-.9.9zM443.4 168c0 1.3.4 1.6 1 1 .7-.7.7-1.3 0-2-.6-.6-1-.3-1 1zM383.6 168.2c.3.5 1 .6 1.5.3 1.3-.9 1.1-1.2-.6-1.2-.8 0-1.2.4-.9.9zM395.6 168.7c-.6 1.4-.5 1.5.5.6.7-.7 1-1.5.7-1.8-.3-.3-.9.2-1.2 1.2zM413.6 167.9c.8.8 4.3.8 3.8 0-.2-.4-1.3-.7-2.4-.6-1 .1-1.7.3-1.4.6zM430.6 167.8c-.3.5.1.9.9.9s1.5-.4 1.5-.9c0-.4-.4-.8-.9-.8-.6 0-1.2.4-1.5.8zM447 168.1c0 .5.5.7 1 .4.6-.3 1-.8 1-1.1 0-.2-.4-.4-1-.4-.5 0-1 .5-1 1.1zM377.5 171.1c-.4.6-.5 1.2-.2 1.5.2.3.7-.2 1-1.1.7-1.7.1-2-.8-.4zM463 170.4c0 .2.8 1 1.8 1.7 1.5 1.3 1.6 1.2.3-.4s-2.1-2.1-2.1-1.3zM384.6 172.2c.3.5 1 .6 1.5.3 1.3-.9 1.1-1.2-.6-1.2-.8 0-1.2.4-.9.9zM409 171.9c0 .6.4 1.3 1 1.6.6.3.7-.1.4-.9-.7-1.8-1.4-2.1-1.4-.7zM455 172.4c.7.7 1.3.7 2 0 .6-.6.3-1-1-1s-1.6.4-1 1zM445.6 175.3c.3 1 .9 1.5 1.2 1.2.3-.3 0-1.1-.7-1.8-1-.9-1.1-.8-.5.6zM388.5 176.1c-.3.4.2.6 1 .5 2.1-.3 2.8-1.3 1-1.3-.9 0-1.8.4-2 .8zM400.6 175.8c-.3.5.1.9.9.9s1.2-.4.9-.9c-.3-.4-.7-.8-.9-.8-.2 0-.6.4-.9.8zM404.6 176.2c.3.5 1 .6 1.5.3 1.3-.9 1.1-1.2-.6-1.2-.8 0-1.2.4-.9.9zM413.6 175.8c-.3.5.1.9.9.9s1.2-.4.9-.9c-.3-.4-.7-.8-.9-.8-.2 0-.6.4-.9.8zM425.9 176.7c-1.3 1.6-1.2 1.7.4.4 1.6-1.3 2.1-2.1 1.3-2.1-.2 0-1 .8-1.7 1.7zM471 177.4c0 .2.7.7 1.6 1 .8.3 1.2.2.9-.4-.6-1-2.5-1.4-2.5-.6zM399 178.4c0 .2.8 1 1.8 1.7 1.5 1.3 1.6 1.2.3-.4s-2.1-2.1-2.1-1.3zM384 180c-.9.6-1 1-.3 1 .6 0 1.5-.5 1.8-1 .8-1.2.4-1.2-1.5 0zM414.6 179.8c-.2.4.4.8 1.4.8 1 0 1.6-.4 1.4-.8-.3-.4-.9-.8-1.4-.8-.5 0-1.1.4-1.4.8zM446.6 180.2c.3.5 1 .6 1.5.3 1.3-.9 1.1-1.2-.6-1.2-.8 0-1.2.4-.9.9zM396 182c-.9.6-1 1-.3 1 .6 0 1.5-.5 1.8-1 .8-1.2.4-1.2-1.5 0zM374.6 184.2c.3.4.9.8 1.5.8.5 0 .9-.4.9-.8 0-.5-.7-.9-1.5-.9s-1.2.4-.9.9zM404.4 183.8c.4.3 1.4.7 2.2.8.9.1 1.3 0 1-.4-.4-.3-1.4-.7-2.2-.8-.9-.1-1.3 0-1 .4zM409.6 184.2c.3.5 1 .6 1.5.3 1.3-.9 1.1-1.2-.6-1.2-.8 0-1.2.4-.9.9zM417 183.9c0 .6.4 1.3 1 1.6.6.3.7-.1.4-.9-.7-1.8-1.4-2.1-1.4-.7zM371.5 184.9c-.3.5-.2 1.2.3 1.5.5.3.9-.1.9-.9 0-1.7-.3-1.9-1.2-.6zM389.6 187.3c.3 1 .9 1.5 1.2 1.2.3-.3 0-1.1-.7-1.8-1-.9-1.1-.8-.5.6zM375 187.4c0 .2.7.7 1.6 1 .8.3 1.2.2.9-.4-.6-1-2.5-1.4-2.5-.6zM399.4 187.8c.4.3 1.4.7 2.2.8.9.1 1.3 0 1-.4-.4-.3-1.4-.7-2.2-.8-.9-.1-1.3 0-1 .4zM387 190.3c0 .2.6 1 1.4 1.6 1.1.9 1.6.9 2.2-.1.4-.7.4-1-.1-.6-.4.4-1.4.3-2.2-.3-.7-.6-1.3-.9-1.3-.6zM399 190.4c0 .2.8 1 1.8 1.7 1.5 1.3 1.6 1.2.3-.4s-2.1-2.1-2.1-1.3zM419.5 190.9c-.3.5-.2 1.2.3 1.5.5.3.9-.1.9-.9 0-1.7-.3-1.9-1.2-.6zM431.5 190.9c-.3.5-.2 1.2.3 1.5.5.3.9-.1.9-.9 0-1.7-.3-1.9-1.2-.6zM367.5 192c-.3.5-.1 1 .4 1 .6 0 1.1-.5 1.1-1 0-.6-.2-1-.4-1-.3 0-.8.4-1.1 1zM434 191.4c0 .2.8 1 1.8 1.7 1.5 1.3 1.6 1.2.3-.4s-2.1-2.1-2.1-1.3zM445.6 191.8c-.3.4.4.9 1.5.9 2.3.2 2.5-.3.4-1-.8-.4-1.6-.3-1.9.1zM463 192.4c.7.7 1.3.7 2 0 .6-.6.3-1-1-1s-1.6.4-1 1zM391 195.5c0 .7 3 1.3 3.4.7.3-.4-.4-.9-1.5-.9-1-.1-1.9 0-1.9.2zM405.6 196.7c-.6 1.4-.5 1.5.5.6.7-.7 1-1.5.7-1.8-.3-.3-.9.2-1.2 1.2zM456 196c-1.2.7-1 .9.7.7 1.2 0 1.9-.5 1.7-.9-.6-1-.6-1-2.4.2zM382.5 198c-.3.6.1.7.9.4 1.8-.7 2.1-1.4.7-1.4-.6 0-1.3.4-1.6 1zM433.5 199.1c-.4.6-.5 1.2-.2 1.5.2.3.7-.2 1-1.1.7-1.7.1-2-.8-.4zM399.4 199.8c.4.3 1.4.7 2.2.8.9.1 1.3 0 1-.4-.4-.3-1.4-.7-2.2-.8-.9-.1-1.3 0-1 .4zM415.1 201.3c-.8 1-.7 1.4.2 1.4.8 0 1.4-.6 1.4-1.4 0-.7-.1-1.3-.2-1.3-.2 0-.8.6-1.4 1.3zM399 202.4c0 .2.8 1 1.8 1.7 1.5 1.3 1.6 1.2.3-.4s-2.1-2.1-2.1-1.3zM390.7 204.1c.7.7 1.5 1 1.8.7.3-.3-.2-.9-1.2-1.2-1.4-.6-1.5-.5-.6.5zM462.7 204.1c.7.7 1.5 1 1.8.7.3-.3-.2-.9-1.2-1.2-1.4-.6-1.5-.5-.6.5zM374.7 206.1c.7.7 1.5 1 1.8.7.3-.3-.2-.9-1.2-1.2-1.4-.6-1.5-.5-.6.5zM386.7 206.1c.7.7 1.5 1 1.8.7.3-.3-.2-.9-1.2-1.2-1.4-.6-1.5-.5-.6.5zM423.3 207.1c-.2 2.3.3 2.5 1 .4.4-.8.3-1.6-.1-1.9-.4-.3-.9.4-.9 1.5zM456 206c-.9.6-1 1-.3 1 .6 0 1.5-.5 1.8-1 .8-1.2.4-1.2-1.5 0zM441.4 207.4c.1.8.5 1.8.8 2.2.4.3.5-.1.4-1-.1-.8-.5-1.8-.8-2.2-.4-.3-.5.1-.4 1zM399.9 208.7c-1.3 1.6-1.2 1.7.4.4 1.6-1.3 2.1-2.1 1.3-2.1-.2 0-1 .8-1.7 1.7zM435.4 207.8c.4.3 1.4.7 2.2.8.9.1 1.3 0 1-.4-.4-.3-1.4-.7-2.2-.8-.9-.1-1.3 0-1 .4zM411.5 208.9c-.3.5-.2 1.2.3 1.5.5.3.9-.1.9-.9 0-1.7-.3-1.9-1.2-.6zM394.5 210c-.3.6.1.7.9.4 1.8-.7 2.1-1.4.7-1.4-.6 0-1.3.4-1.6 1zM450.5 210c-.3.6.1.7.9.4 1.8-.7 2.1-1.4.7-1.4-.6 0-1.3.4-1.6 1zM461 210.1c0 .5.5.7 1 .4.6-.3 1-.8 1-1.1 0-.2-.4-.4-1-.4-.5 0-1 .5-1 1.1zM366 211.4c0 .2.8 1 1.8 1.7 1.5 1.3 1.6 1.2.3-.4s-2.1-2.1-2.1-1.3zM398.5 212c-.3.6.1.7.9.4 1.8-.7 2.1-1.4.7-1.4-.6 0-1.3.4-1.6 1zM459.3 213.5c0 .8.4 1.2.9.9.5-.3.6-1 .3-1.5-.9-1.3-1.2-1.1-1.2.6zM422.5 214.1c-.3.4.2.6 1 .5 2.1-.3 2.8-1.3 1-1.3-.9 0-1.8.4-2 .8zM361.5 215.9c-.3.5-.2 1.2.3 1.5.5.3.9-.1.9-.9 0-1.7-.3-1.9-1.2-.6zM416.6 216.2c.3.5 1 .6 1.5.3 1.3-.9 1.1-1.2-.6-1.2-.8 0-1.2.4-.9.9zM457 218.1c0 .5.5.7 1 .4.6-.3 1-.8 1-1.1 0-.2-.4-.4-1-.4-.5 0-1 .5-1 1.1zM389.6 219.9c.8.8 4.3.8 3.8 0-.2-.4-1.3-.7-2.4-.6-1 .1-1.7.3-1.4.6zM447.9 219.2c-.5 1.8-.6 3.8-.1 3.4.7-.8 1.2-3.6.6-3.6-.2 0-.4.1-.5.2zM363.5 222.9c-.3.5-.2 1.2.3 1.5.5.3.9-.1.9-.9 0-1.7-.3-1.9-1.2-.6zM375.9 222.2c-.5 1.8-.6 3.8-.1 3.4.7-.8 1.2-3.6.6-3.6-.2 0-.4.1-.5.2zM411 222.4c0 .2.8 1 1.8 1.7 1.5 1.3 1.6 1.2.3-.4s-2.1-2.1-2.1-1.3zM439.4 224c0 1.3.4 1.6 1 1 .7-.7.7-1.3 0-2-.6-.6-1-.3-1 1zM378 223.4c0 .2.8 1 1.8 1.7 1.5 1.3 1.6 1.2.3-.4s-2.1-2.1-2.1-1.3zM400 223.4c0 .2.8 1 1.8 1.7 1.5 1.3 1.6 1.2.3-.4s-2.1-2.1-2.1-1.3zM427 223.9c0 .6.4 1.3 1 1.6.6.3.7-.1.4-.9-.7-1.8-1.4-2.1-1.4-.7zM419 225.4c0 .2.7.7 1.6 1 .8.3 1.2.2.9-.4-.6-1-2.5-1.4-2.5-.6zM431 225.4c0 .2.7.7 1.6 1 .8.3 1.2.2.9-.4-.6-1-2.5-1.4-2.5-.6zM408.6 228.2c.3.5 1 .6 1.5.3 1.3-.9 1.1-1.2-.6-1.2-.8 0-1.2.4-.9.9zM438.5 228c-.3.6.1.7.9.4 1.8-.7 2.1-1.4.7-1.4-.6 0-1.3.4-1.6 1zM447.5 228.9c-.3.5-.2 1.2.3 1.5.5.3.9-.1.9-.9 0-1.7-.3-1.9-1.2-.6zM415.3 231.1c-.2 2.3.3 2.5 1 .4.4-.8.3-1.6-.1-1.9-.4-.3-.9.4-.9 1.5zM377.9 230.2c-.5 1.8-.6 3.8-.1 3.4.7-.8 1.2-3.6.6-3.6-.2 0-.4.1-.5.2zM387.4 232c0 1.3.4 1.6 1 1 .7-.7.7-1.3 0-2-.6-.6-1-.3-1 1zM403.5 231.1c-.4.6-.5 1.2-.2 1.5.2.3.7-.2 1-1.1.7-1.7.1-2-.8-.4zM435.3 233.5c0 .8.4 1.2.9.9.5-.3.6-1 .3-1.5-.9-1.3-1.2-1.1-1.2.6zM447.3 233.5c0 .8.4 1.2.9.9.5-.3.6-1 .3-1.5-.9-1.3-1.2-1.1-1.2.6zM397.6 235.3c.3 1 .9 1.5 1.2 1.2.3-.3 0-1.1-.7-1.8-1-.9-1.1-.8-.5.6zM422.6 235.8c-.2.4.4.8 1.4.8 1 0 1.6-.4 1.4-.8-.3-.4-.9-.8-1.4-.8-.5 0-1.1.4-1.4.8zM375.6 237.8c-.2.4-.1 1.4.4 2.2.7 1.1.9.9.7-.8-.1-2.4-.3-2.6-1.1-1.4zM446.5 238c-.3.6.1.7.9.4 1.8-.7 2.1-1.4.7-1.4-.6 0-1.3.4-1.6 1zM366.9 239.7c-1.3 1.6-1.2 1.7.4.4.9-.7 1.7-1.5 1.7-1.7 0-.8-.8-.3-2.1 1.3zM357.9 240.7c-1.3 1.6-1.2 1.7.4.4 1.6-1.3 2.1-2.1 1.3-2.1-.2 0-1 .8-1.7 1.7zM361.5 240.1c-.3.4.2.6 1 .5 2.1-.3 2.8-1.3 1-1.3-.9 0-1.8.4-2 .8zM386 239.4c0 .2.8 1 1.8 1.7 1.5 1.3 1.6 1.2.3-.4s-2.1-2.1-2.1-1.3zM397.4 240.2c-.4.7-.4 1 .1.6.4-.4 1.5-.2 2.4.5 1.4 1.1 1.4 1 .2-.6-1.6-2-1.8-2.1-2.7-.5zM403.9 240.7c-1.3 1.6-1.2 1.7.4.4.9-.7 1.7-1.5 1.7-1.7 0-.8-.8-.3-2.1 1.3zM407.5 239.9c-.3.5-.2 1.2.3 1.5.5.3.9-.1.9-.9 0-1.7-.3-1.9-1.2-.6zM439 239.4c0 .2.7.7 1.6 1 .8.3 1.2.2.9-.4-.6-1-2.5-1.4-2.5-.6zM431.3 241.5c0 .8.4 1.2.9.9.5-.3.6-1 .3-1.5-.9-1.3-1.2-1.1-1.2.6zM422.6 244.1c.2.4 1.3.7 2.4.6 2.3-.2 1.7-1-1-1.2-1-.1-1.7.2-1.4.6zM374.4 245.8c.4.3 1.4.7 2.2.8.9.1 1.3 0 1-.4-.4-.3-1.4-.7-2.2-.8-.9-.1-1.3 0-1 .4zM385.5 247.1c-.4.6-.5 1.2-.2 1.5.2.3.7-.2 1-1.1.7-1.7.1-2-.8-.4zM381.6 248.2c.3.5 1 .6 1.5.3 1.3-.9 1.1-1.2-.6-1.2-.8 0-1.2.4-.9.9zM362.5 250c-.3.6.1.7.9.4 1.8-.7 2.1-1.4.7-1.4-.6 0-1.3.4-1.6 1zM431 249.4c0 .2.7.7 1.6 1 .8.3 1.2.2.9-.4-.6-1-2.5-1.4-2.5-.6zM438.9 251.7c-1.3 1.6-1.2 1.7.4.4 1.6-1.3 2.1-2.1 1.3-2.1-.2 0-1 .8-1.7 1.7zM416.1 252.4c-.9 1.1-.9 1.6.1 2.2.7.4 1 .4.6-.1-.4-.4-.3-1.4.3-2.2.6-.7.9-1.3.6-1.3-.2 0-1 .6-1.6 1.4zM359.3 254.5c0 .8.4 1.2.9.9.5-.3.6-1 .3-1.5-.9-1.3-1.2-1.1-1.2.6zM420 254c-.9.6-1 1-.3 1 .6 0 1.5-.5 1.8-1 .8-1.2.4-1.2-1.5 0zM434.7 254.1c.7.7 1.5 1 1.8.7.3-.3-.2-.9-1.2-1.2-1.4-.6-1.5-.5-.6.5zM355.4 255.4c.1.8.5 1.8.8 2.2.4.3.5-.1.4-1-.1-.8-.5-1.8-.8-2.2-.4-.3-.5.1-.4 1zM393.6 255.3c.3 1 .9 1.5 1.2 1.2.3-.3 0-1.1-.7-1.8-1-.9-1.1-.8-.5.6zM405.6 255.3c.3 1 .9 1.5 1.2 1.2.3-.3 0-1.1-.7-1.8-1-.9-1.1-.8-.5.6zM377 255.9c0 .6.4 1.3 1 1.6.6.3.7-.1.4-.9-.7-1.8-1.4-2.1-1.4-.7zM389 255.9c0 .6.4 1.3 1 1.6.6.3.7-.1.4-.9-.7-1.8-1.4-2.1-1.4-.7zM396.5 256.1c-.3.4.2.6 1 .5 2.1-.3 2.8-1.3 1-1.3-.9 0-1.8.4-2 .8zM359 257.4c0 .2.7.7 1.6 1 .8.3 1.2.2.9-.4-.6-1-2.5-1.4-2.5-.6zM367.3 257.7c.4.3.1 1.3-.6 2.2-1.1 1.4-1 1.4.5.2 1.6-1.2 1.6-3.1.1-3.1-.4 0-.3.3 0 .7zM423 260.4c.7.7 1.3.7 2 0 .6-.6.3-1-1-1s-1.6.4-1 1zM397.6 264.7c-.6 1.4-.5 1.5.5.6.7-.7 1-1.5.7-1.8-.3-.3-.9.2-1.2 1.2zM414 263.4c0 .2.8 1 1.8 1.7 1.5 1.3 1.6 1.2.3-.4s-2.1-2.1-2.1-1.3zM352 266c-.9.6-1 1-.3 1 .6 0 1.5-.5 1.8-1 .8-1.2.4-1.2-1.5 0zM359 267.5c0 .7 3 1.3 3.4.7.3-.4-.4-.9-1.5-.9-1-.1-1.9 0-1.9.2zM367.3 269.7c.4.3.1 1.3-.6 2.2-1.1 1.4-1 1.4.5.2 1.6-1.2 1.6-3.1.1-3.1-.4 0-.3.3 0 .7zM420 270c-.9.6-1 1-.3 1 .6 0 1.5-.5 1.8-1 .8-1.2.4-1.2-1.5 0zM375.3 271.5c0 .8.4 1.5.9 1.5.4 0 .8-.4.8-.9 0-.6-.4-1.2-.8-1.5-.5-.3-.9.1-.9.9zM383.4 270.8c.4.7.2 2.1-.5 3-1.2 1.5-1.1 1.5.6 0 1.6-1.5 1.7-2 .6-3-1.1-1.1-1.3-1-.7 0zM395.6 271.3c.3 1 .9 1.5 1.2 1.2.3-.3 0-1.1-.7-1.8-1-.9-1.1-.8-.5.6zM404.1 272.4c-.9 1.1-.9 1.6.1 2.2.7.4 1 .4.6-.1-.4-.4-.3-1.4.3-2.2.6-.7.9-1.3.6-1.3-.2 0-1 .6-1.6 1.4zM366 275.4c0 .2.8 1 1.8 1.7 1.5 1.3 1.6 1.2.3-.4s-2.1-2.1-2.1-1.3zM374.6 275.8c-.2.4.4.8 1.4.8 1 0 1.6-.4 1.4-.8-.3-.4-.9-.8-1.4-.8-.5 0-1.1.4-1.4.8zM384.6 276.2c.3.5 1 .6 1.5.3 1.3-.9 1.1-1.2-.6-1.2-.8 0-1.2.4-.9.9zM398.6 275.8c-.3.5.1.9.9.9s1.2-.4.9-.9c-.3-.4-.7-.8-.9-.8-.2 0-.6.4-.9.8zM414.6 276.2c.3.5 1 .6 1.5.3 1.3-.9 1.1-1.2-.6-1.2-.8 0-1.2.4-.9.9zM407.6 278.2c.3.5 1 .6 1.5.3 1.3-.9 1.1-1.2-.6-1.2-.8 0-1.2.4-.9.9zM388.5 280.1c-.3.4.2.6 1 .5 2.1-.3 2.8-1.3 1-1.3-.9 0-1.8.4-2 .8zM393.6 279.8c-.3.5.1.9.9.9s1.2-.4.9-.9c-.3-.4-.7-.8-.9-.8-.2 0-.6.4-.9.8zM400.6 280.2c.3.5 1 .6 1.5.3 1.3-.9 1.1-1.2-.6-1.2-.8 0-1.2.4-.9.9zM383.4 285.2l-1.9 2.3 2.3-1.9c2.1-1.8 2.7-2.6 1.9-2.6-.2 0-1.2 1-2.3 2.2zM405.6 284.7c-.6 1.4-.5 1.5.5.6.7-.7 1-1.5.7-1.8-.3-.3-.9.2-1.2 1.2zM375 288c0 .5.5 1 1 1 .6 0 1-.5 1-1 0-.6-.4-1-1-1-.5 0-1 .4-1 1zM393.6 287.8c-.3.5.1.9.9.9s1.2-.4.9-.9c-.3-.4-.7-.8-.9-.8-.2 0-.6.4-.9.8zM397.6 288.2c.3.5 1 .6 1.5.3 1.3-.9 1.1-1.2-.6-1.2-.8 0-1.2.4-.9.9zM408.1 288.4c-.9 1.1-.9 1.6.1 2.2.7.4 1 .4.6-.1-.4-.4-.3-1.4.3-2.2.6-.7.9-1.3.6-1.3-.2 0-1 .6-1.6 1.4zM389.6 291.3c.3 1 .9 1.5 1.2 1.2.3-.3 0-1.1-.7-1.8-1-.9-1.1-.8-.5.6zM350.5 292c-.3.6.1.7.9.4 1.8-.7 2.1-1.4.7-1.4-.6 0-1.3.4-1.6 1zM365.6 292.7c-.6 1.4-.5 1.5.5.6.7-.7 1-1.5.7-1.8-.3-.3-.9.2-1.2 1.2zM371.3 294.5c0 .8.4 1.2.9.9.5-.3.6-1 .3-1.5-.9-1.3-1.2-1.1-1.2.6zM404 294c-.9.6-1 1-.3 1 .6 0 1.5-.5 1.8-1 .8-1.2.4-1.2-1.5 0zM355.4 296c0 1.3.4 1.6 1 1 .7-.7.7-1.3 0-2-.6-.6-1-.3-1 1zM349.6 296.7c-.6 1.4-.5 1.5.5.6.7-.7 1-1.5.7-1.8-.3-.3-.9.2-1.2 1.2zM399.9 296.5c-.1.3-.2.8-.3 1.2-.1.5-.5 1.5-1 2.3-.7 1.2-.6 1.3.4.3 1.3-1.2 2.3-4.3 1.4-4.3-.2 0-.5.2-.5.5zM383.5 297.9c-.3.5-.2 1.2.3 1.5.5.3.9-.1.9-.9 0-1.7-.3-1.9-1.2-.6zM394.5 298c-.3.6.1.7.9.4 1.8-.7 2.1-1.4.7-1.4-.6 0-1.3.4-1.6 1zM366.9 299.7c-1.3 1.6-1.2 1.7.4.4 1.6-1.3 2.1-2.1 1.3-2.1-.2 0-1 .8-1.7 1.7zM374.7 300.1c.7.7 1.5 1 1.8.7.3-.3-.2-.9-1.2-1.2-1.4-.6-1.5-.5-.6.5zM375.4 304c0 1.3.4 1.6 1 1 .7-.7.7-1.3 0-2-.6-.6-1-.3-1 1zM387.5 304c.2 2.7 1 3.3 1.2 1 .1-1.1-.2-2.2-.6-2.4-.4-.3-.7.4-.6 1.4zM391 303.9c0 .6.4 1.3 1 1.6.6.3.7-.1.4-.9-.7-1.8-1.4-2.1-1.4-.7zM343.5 305.9c-.3.5-.2 1.2.3 1.5.5.3.9-.1.9-.9 0-1.7-.3-1.9-1.2-.6zM357.5 308c-.2.3.5.6 1.5.7 1.1.1 2.2-.2 2.4-.5.3-.4-.4-.8-1.5-.8s-2.2.3-2.4.6zM395.3 309.5c0 .8.4 1.2.9.9.5-.3.6-1 .3-1.5-.9-1.3-1.2-1.1-1.2.6zM383.5 309.9c-.3.5-.2 1.2.3 1.5.5.3.9-.1.9-.9 0-1.7-.3-1.9-1.2-.6zM387.9 313.2c-.5 1.6-.4 4.6.2 4.2.4-.2.7-1.3.6-2.4-.1-1.7-.5-2.6-.8-1.8zM366.9 316.3c.6.8.7 1.8.3 2.2-.4.5-.1.5.6.1 1-.6 1-1.1.1-2.2-.6-.8-1.4-1.4-1.6-1.4-.3 0 0 .6.6 1.3zM348 318c-.9.6-1 1-.3 1 .6 0 1.5-.5 1.8-1 .8-1.2.4-1.2-1.5 0zM362.7 318.1c.7.7 1.5 1 1.8.7.3-.3-.2-.9-1.2-1.2-1.4-.6-1.5-.5-.6.5zM377.9 318.2c-.5 1.8-.6 3.8-.1 3.4.7-.8 1.2-3.6.6-3.6-.2 0-.4.1-.5.2zM350.6 323.8c-.3.5.1.9.9.9s1.2-.4.9-.9c-.3-.4-.7-.8-.9-.8-.2 0-.6.4-.9.8zM367 324.4c.7.7 1.3.7 2 0 .6-.6.3-1-1-1s-1.6.4-1 1zM355.3 327.1c-.2 2.3.3 2.5 1 .4.4-.8.3-1.6-.1-1.9-.4-.3-.9.4-.9 1.5zM363.6 328.7c-.6 1.4-.5 1.5.5.6.7-.7 1-1.5.7-1.8-.3-.3-.9.2-1.2 1.2zM366.6 327.9c-.3.4.4.7 1.4.6 2.7-.2 3.3-1 1-1.2-1.1-.1-2.2.2-2.4.6zM357.6 331.8c-.3.5.1.9.9.9s1.2-.4.9-.9c-.3-.4-.7-.8-.9-.8-.2 0-.6.4-.9.8zM359.3 336.5c0 .8.4 1.2.9.9.5-.3.6-1 .3-1.5-.9-1.3-1.2-1.1-1.2.6zM362 335.4c0 .2.8 1 1.8 1.7 1.5 1.3 1.6 1.2.3-.4s-2.1-2.1-2.1-1.3zM363 339.4c0 .2.7.7 1.6 1 .8.3 1.2.2.9-.4-.6-1-2.5-1.4-2.5-.6zM184 90c.8.5 2 1 2.5 1 .6 0 .3-.5-.5-1s-1.9-1-2.5-1c-.5 0-.3.5.5 1zM174.5 94c-.3.6.1.7.9.4 1.8-.7 2.1-1.4.7-1.4-.6 0-1.3.4-1.6 1zM193.5 95.1c-.4.6-.5 1.2-.2 1.5.2.3.7-.2 1-1.1.7-1.7.1-2-.8-.4zM189.6 100.1c.4.8 3 .6 3.8-.2.3-.3-.5-.5-1.9-.5-1.3 0-2.2.3-1.9.7zM184.4 103.8c.4.3 1.4.7 2.2.8.9.1 1.3 0 1-.4-.4-.3-1.4-.7-2.2-.8-.9-.1-1.3 0-1 .4zM193.5 107.1c-.4.6-.5 1.2-.2 1.5.2.3.7-.2 1-1.1.7-1.7.1-2-.8-.4zM335 96.4c.7.7 1.3.7 2 0 .6-.6.3-1-1-1s-1.6.4-1 1zM333.3 101.5c0 .8.4 1.2.9.9.5-.3.6-1 .3-1.5-.9-1.3-1.2-1.1-1.2.6zM319.6 101.8c-.3.5.1.9.9.9s1.2-.4.9-.9c-.3-.4-.7-.8-.9-.8-.2 0-.6.4-.9.8zM327 104c0 .5.5 1 1.1 1 .5 0 .7-.5.4-1-.3-.6-.8-1-1.1-1-.2 0-.4.4-.4 1zM319.4 109.4c.1.8.5 1.8.8 2.2.4.3.5-.1.4-1-.1-.8-.5-1.8-.8-2.2-.4-.3-.5.1-.4 1zM307 110c0 .5.5 1 1.1 1 .5 0 .7-.5.4-1-.3-.6-.8-1-1.1-1-.2 0-.4.4-.4 1zM310.7 110.1c.7.7 1.5 1 1.8.7.3-.3-.2-.9-1.2-1.2-1.4-.6-1.5-.5-.6.5zM323.3 110.5c0 .8.4 1.2.9.9.5-.3.6-1 .3-1.5-.9-1.3-1.2-1.1-1.2.6zM319.3 124.5c0 .8.4 1.2.9.9.5-.3.6-1 .3-1.5-.9-1.3-1.2-1.1-1.2.6zM310.9 127.7c-1.3 1.6-1.2 1.7.4.4 1.6-1.3 2.1-2.1 1.3-2.1-.2 0-1 .8-1.7 1.7z"/></svg>